<svg xmlns="http://www.w3.org/2000/svg" width="123" height="25" viewBox="0 0 123 25">
    <g fill="#000" fill-rule="evenodd" opacity=".7">
        <path fill-rule="nonzero" d="M0 0h24.535v25H0V0zm1.807 3.924C2.9 9.006 3.883 14.116 4.937 19.207c.193.61.074 1.415.667 1.823 1.07.171 2.168.129 3.247.055.587.019.728-.67.835-1.112.736-3.625 1.537-7.238 2.271-10.863.058-.336.162-.662.321-.964.914 3.89 1.67 7.814 2.52 11.717.116.414.14.927.55 1.18 1.168.14 2.366.152 3.531-.01.419-.246.44-.756.547-1.176 1.08-5.308 2.085-10.637 3.226-15.933-1.03.006-2.058.003-3.085.003-.82 4.619-1.477 9.268-2.382 13.872-1.018-3.906-1.7-7.906-2.586-11.848-.202-.674-.11-1.655-.85-1.997a21.9 21.9 0 0 0-2.721 0c-.514.043-.63.65-.73 1.052-.82 3.909-1.68 7.808-2.48 11.717-.083.362-.205.71-.343 1.054a573.612 573.612 0 0 1-2.311-13.85c-1.12-.003-2.238.003-3.357-.003zM48.84 0h24.536v25H48.84V0zm5.544 3.927v17.146h3.4v-6.707c1.843.006 3.687-.01 5.53.003.673-.064 1.474.415 1.458 1.152.086 1.854.245 3.702.361 5.552 1.08 0 2.156 0 3.235.003-.306-2.097.07-4.265-.523-6.32-.306-1.076-1.498-1.317-2.427-1.585.69-.366 1.577-.4 2.079-1.07.727-.921.78-2.15.782-3.272-.012-1.31.019-2.753-.816-3.853-.667-.915-1.914-1.05-2.96-1.05-3.372-.002-6.747 0-10.12 0zM97.758 0h24.84v25h-24.84V0zm5.543 3.927v17.146c2.858-.006 5.714.012 8.573-.009 1.76-.034 3.812-.36 4.873-1.933 1.238-1.976 1.052-4.393 1.269-6.622-.22-2.232-.025-4.658-1.269-6.64-.988-1.473-2.877-1.86-4.537-1.92-2.969-.05-5.94-.01-8.91-.022z"/>
        <path d="M30.76 3.76c3.953-.01 7.903-.01 11.853 0 .015 1.02.015 2.045.003 3.07-1.397.008-2.794.002-4.192.002.007 3.778.007 7.558 0 11.336 1.398 0 2.795-.006 4.195.006.006 1.021.01 2.046-.006 3.067-3.95.009-7.9.009-11.85 0a114.19 114.19 0 0 1-.003-3.07c1.397-.01 2.794-.003 4.191-.003-.006-3.778-.006-7.558 0-11.336-1.397 0-2.794.006-4.191-.003a128.462 128.462 0 0 1 0-3.07zM77.76 3.762c4.843-.015 9.686-.015 14.531 0 .007 1.897 0 3.793.004 5.69h-3.146c-.004-.876-.004-1.748.003-2.62-1.896.003-3.788.003-5.684 0-.006 1.311-.003 2.622-.003 3.933h4.586v2.918h-4.586c.006 1.497-.015 2.997.015 4.494 1.945-.022 3.89-.006 5.834-.01-.003-.996-.003-1.993 0-2.99 1.067-.012 2.134-.012 3.2-.003 0 2.021.016 4.042-.009 6.064-4.916.015-9.829.015-14.745 0a127.952 127.952 0 0 1-.003-3.064c.78-.01 1.556-.01 2.336-.003.015-3.78.015-7.561 0-11.342-.78.006-1.56.006-2.34-.009-.005-1.018-.005-2.04.007-3.058zM57.783 6.744c2.183.033 4.37-.067 6.546.046.84.594.673 1.79.706 2.689-.042.817-.058 2.125-1.15 2.189-2.03.103-4.068.015-6.102.042V6.744zM106.7 6.744c1.844.009 3.688-.012 5.531.006.823-.01 1.761.39 2.021 1.232.578 1.646.333 3.433.398 5.146-.05 1.369.094 2.814-.49 4.098-.39.829-1.403 1.048-2.237 1.033-1.743 0-3.483-.006-5.222-.003V6.744z"/>
    </g>
</svg>
