<svg xmlns="http://www.w3.org/2000/svg" width="156" height="25" viewBox="0 0 156 25">
    <g fill="none" fill-rule="evenodd" opacity=".7">
        <path fill="#131514" d="M5.958 10.711V4.879c0-.249-.116-.53-.622-.245-.573.321-3.47 1.836-3.579 1.896-.112.056-.169.163-.169.325v6.86c0 .435-.109 1.24-.685 2.026-.126.169-.308.318-.146.454.093.073.249.07.5-.02 2.77-1.048 4.701-3.196 4.701-5.464M125.4 15.452c-.146-.09-1.275-.667-1.275-1.877V2.948c0-.08-.02-.192-.172-.278-.155-.083-3.836-2.251-3.919-2.291-.126-.053-.221-.053-.487.106a1857.8 1857.8 0 0 0-3.2 2.006.255.255 0 0 1-.265 0A2236.13 2236.13 0 0 0 112.89.724c-.13-.073-.252-.056-.395.013-.102.046-3.389 1.82-4.008 2.162a.205.205 0 0 1-.196 0c-.486-.286-2.72-1.589-2.817-1.651-.082-.043-.238-.113-.393-.02-.16.092-2.923 1.866-3.013 1.936-.082.056-.175.166-.142.288.023.1.162.213.32.332.113.08 1.91 1.31 2.02 1.383.176.122.202.275.202.427v9.194s-1.082.62-1.149.664c-.075.056-.36.228-.032.414.168.096 2.936 1.538 3.8 1.99a.506.506 0 0 0 .476.01c.692-.392 2.79-1.566 2.867-1.615.136-.083.291-.246.033-.418-.07-.047-.397-.252-.725-.454v-4.195h2.181v3.26s-.93.586-1.006.626c-.07.043-.251.249.106.451.126.076 3.357 1.787 4.357 2.31.182.1.38.1.536 0 .728-.453 2.833-1.763 2.873-1.79.096-.062.13-.086.153-.155.016-.073-.05-.13-.146-.19-.073-.049-.848-.553-1.394-.904v-3.747c.4-.604 1.933-2.91 1.973-2.97.046-.067.04-.18-.08-.18H117.4V3.39c.596.306 1.91.985 1.976 1.022a.59.59 0 0 1 .311.546v9.679c0 .65.325 2.374 2.619 3.269.069.026.291.037.407-.046.629-.451 2.711-1.93 2.757-1.97.106-.083.203-.268-.069-.437zm-15.979-.269c-.212-.132-.374-.24-.41-.262-.106-.07-.176-.146-.176-.342V3.814c0-.23.269-.435.586-.408v11.777zm2.5-7.288h-.193a.345.345 0 0 0-.278.143c-.036.06-1.201 1.81-1.71 2.576V3.509c.346.182 1.816.955 1.902 1.004.176.097.278.206.278.425v2.957zm5.16 6.688c-.113-.073-.185-.12-.202-.136-.086-.05-.278-.18-.278-.411v-2.852h.48v3.399zm0-6.688h-.48v-4.45c0-.168.047-.397.48-.215v4.665z"/>
        <path fill="#131514" d="M13.913.694H4.39a.878.878 0 0 0-.52.182C3.042 1.513.354 3.566.21 3.682c-.126.093-.216.166-.209.275.007.1.116.139.17.139h8.202v10.219c-2.125-.133-4.793.43-6.62 3.392-.107.175-.103.384.171.351 2.311-.272 6.178-.667 8.961.043.076.02.269-.007.341-.12.424-.656 2.072-2.897 5.039-3.557.072-.02.225-.136.225-.292V3.784c0-1.458-.325-3.09-2.576-3.09zm-2.151 14.247c0 .113-.06.146-.17.1a10.62 10.62 0 0 0-2.895-.703v-3.667c.496-.607 1.02-.915 1.548-.912.73.003 1.341.63 1.517.822v4.36zm0-4.84c-.302-.285-.834-.68-1.51-.687-.543-.007-1.056.233-1.542.73V7.988c.436.556.926.865 1.456.901.672.044 1.261-.348 1.596-.646V10.1zm0-2.351c-.166.182-.821.845-1.573.789-.533-.033-1.033-.428-1.48-1.154v-3.29h2.682c.354 0 .37.024.37.323V7.75zM31.951 15.61c-.129-.093-1.446-.98-1.81-1.221-.063-.04-.093-.113-.093-.199V9.081c0-.143.056-.215.132-.275.12-.087.626-.504.732-.594.102-.09.185-.312-.106-.484-.347-.212-4.419-2.364-4.611-2.45a1.041 1.041 0 0 0-.695-.02c-.709.219-4.483 1.492-6.985 4.705-1.129 1.458-1.37 3.368-1.053 4.788.285 1.276 1.023 2.884 4.065 3.458.077.013.292-.007.404-.1.57-.457 2.387-1.92 2.496-2.012.13-.113.231-.1.35-.037.097.056 3.404 1.654 4.288 2.083.139.069.281.059.387-.024.576-.45 2.44-1.903 2.569-2.022.152-.137.146-.328-.07-.488zm-6.935-.408c0 .04-.013.082-.046.116-.113.118-.444.37-1.026.116-.818-.349-2.1-1.284-2.675-2.464-.384-.786-.748-2.022-.437-3.08.219-.763.543-1.41 1.688-2.129.06-.033.229-.07.325-.003.473.315 1.9 1.273 1.996 1.343a.402.402 0 0 1 .175.321v5.78z"/>
        <path fill="#131514" d="M39.433 15.697c-.073-.043-1.105-.624-1.41-.8-.139-.079-.139-.245-.139-.395V9.155c0-.199.05-.266.239-.401.122-.09.476-.345.665-.49.139-.11.235-.253.036-.382-.145-.093-3.687-2.04-4.005-2.206-.298-.155-.457-.148-.61-.049-.151.09-2.687 1.81-2.873 1.943-.191.13-.158.365-.04.454.124.083 1.295.736 1.457.83.166.095.209.175.209.278v5.941s-.328.252-.625.484c-.292.23-.14.438-.067.488.06.043 3.119 1.575 3.933 1.982a.34.34 0 0 0 .357-.016c.609-.424 2.708-1.88 2.873-2.003.146-.109.126-.238 0-.311M36.077 4.757c.45-.302.841-.686 1.159-1.12.44-.607.735-1.347.417-2.09C37.368.891 36.5.542 35.832.758c-.689.222-1.271.879-1.456 1.655-.186.779.122 1.906.483 2.43.258.365.635.305 1.218-.086M47.103 15.966c-.073-.04-1.07-.633-1.374-.806-.14-.079-.14-.244-.14-.39V1.606c0-.186-.217-.272-.519-.183-.235.07-4.959 1.532-5.091 1.595-.096.046-.112.1-.112.186 0 .102.139.152.32.212.295.096.693.225.693 1.3v10.248a.352.352 0 0 1-.133.276c-.123.092-.314.245-.49.384-.298.228-.146.434-.073.487.067.04 3.06 1.546 3.906 1.97.14.07.295.06.424-.027.613-.42 2.427-1.657 2.589-1.777.149-.11.125-.239 0-.312"/>
        <path fill="#131514" d="M61.909 7.478c-.123-.07-3.456-2.072-3.615-2.159-.262-.132-.44-.162-.692 0-.162.107-2.29 1.638-2.417 1.738a.3.3 0 0 0 0 .504c.166.123 1.07.603 1.166.662.145.087.274.246.274.545v6.979s.024.408-.447.623c-.446.202-1.522.451-2.592-.418-.145-.116-.182-.331-.182-.45V8.824s.007-.398.278-.614l.335-.284c.199-.186.46-.352-.026-.654A309.38 309.38 0 0 0 50.56 5.4c-.262-.136-.437-.162-.695 0-.16.103-2.424 1.591-2.552 1.691a.308.308 0 0 0 0 .507c.165.12 1.069.61 1.168.666.143.087.275.242.275.54v7.518c0 .265-.106.364-.16.414-.684.673-1.174 1.412-1.363 2.496-.169 1.002-.291 2.488 1.622 3.7 1.993 1.267 4.866.733 6.061.243 1.192-.491 2.126-1.081 3.201-1.21 1.08-.13 1.563.676.867 1.555-.738.928-2.158.848-2.29.848-.129 0-.54.034-.014.25 1.153.467 2.824-.107 3.854-1.115.956-.935 1.39-3.21-.358-4.34-1.744-1.127-3.837-.57-4.836-.259-.996.312-2.73 1.177-4.363 1.177-1.632 0-3.26-1.223-2.01-2.725 1.146-1.38 3.318-1.217 4.215-.696.9.523 2.238 1.392 4.462 1.392 2.225 0 3.386-1.293 3.386-2.042V9.36s.007-.355.282-.614l.619-.62c.179-.175.367-.427-.023-.65M140.114 15.26c-.126-.096-1.447-.978-1.815-1.22-.06-.04-.089-.11-.089-.196V8.732c0-.143.053-.22.133-.279.112-.086.629-.504.731-.59.1-.09.182-.312-.105-.487-.348-.21-4.42-2.36-4.618-2.447a1.027 1.027 0 0 0-.692-.017c-.709.216-4.482 1.489-6.982 4.702-1.129 1.459-1.373 3.365-1.055 4.787.29 1.274 1.03 2.882 4.065 3.459.079.013.294-.01.403-.1.57-.458 2.39-1.92 2.5-2.012.129-.113.228-.1.344-.037.1.056 3.406 1.655 4.293 2.082.14.07.281.057.38-.023.58-.45 2.447-1.906 2.576-2.022.152-.136.143-.329-.07-.488zm-6.935-.411a.179.179 0 0 1-.047.122c-.115.117-.44.369-1.03.117-.817-.355-2.101-1.287-2.677-2.474-.377-.779-.745-2.015-.437-3.073.222-.763.543-1.41 1.695-2.129.056-.036.228-.066.324-.003.47.315 1.9 1.27 1.996 1.342a.4.4 0 0 1 .176.319v5.779zM147.94 15.698c-.072-.046-1.105-.627-1.406-.803-.143-.079-.143-.245-.143-.387V9.153c0-.199.05-.262.242-.401.12-.087.476-.341.662-.491.139-.11.235-.249.033-.381-.142-.09-3.68-2.036-4.002-2.205-.298-.153-.453-.146-.606-.053-.159.096-2.691 1.813-2.88 1.946-.188.13-.155.365-.036.45.123.087 1.294.744 1.456.833.166.096.21.172.21.28v5.665c0 .18-.044.312-.117.368-.122.096-.32.252-.506.391-.295.23-.146.438-.07.484.063.047 3.119 1.582 3.933 1.987.119.066.251.06.357-.014.606-.428 2.704-1.88 2.874-2.006.149-.11.122-.235 0-.308M144.584 4.755a4.715 4.715 0 0 0 1.155-1.121c.444-.607.738-1.346.417-2.089-.281-.653-1.148-1.004-1.81-.786-.693.222-1.272.872-1.464 1.652-.185.782.123 1.91.487 2.433.248.365.629.305 1.215-.09M155.606 15.621c-.073-.04-1.066-.633-1.37-.805-.14-.08-.14-.246-.14-.395V1.26c0-.189-.218-.275-.522-.182-.232.073-4.959 1.532-5.095 1.595-.092.047-.106.1-.106.186 0 .102.139.152.318.212.298.096.695.229.695 1.3V14.62a.363.363 0 0 1-.132.275c-.123.093-.311.242-.497.382-.294.232-.142.434-.066.487.063.043 3.062 1.551 3.906 1.973.14.073.295.06.424-.027.613-.42 2.423-1.658 2.585-1.777.152-.11.13-.239 0-.312"/>
        <path fill="#131514" d="M102.565 9.612c-.245-.554-.721-.948-1.427-1.174v-.003h-.006l-.222-.057-.146-.04a2.314 2.314 0 0 0-1.426-.815l-.305-.03-.149-.016.063.122c-.099-.06-.166-.105-.169-.109l-.278-.209-.036-.03c.493.01.943-.07 1.337-.238.937-.412 1.238-1.184 1.265-1.273.003 0 .129-.368.129-.368l.06-.193-.173.09-.35.172a9.51 9.51 0 0 1-.98.424c.135-.185.185-.331.185-.335 0 .007.106-.298.106-.298l.05-.149-.153.047-.308.095a9.618 9.618 0 0 1-.867.223c.036-.073.066-.15.083-.22l.056-.278.03-.143-.136.047-.272.096c-.327.11-1.214.15-1.532.153-.62-.03-1.636.056-1.646.056-.006.003-.01.003-.01.003-1.008.15-1.489.584-1.717.922-.02.033-.037.066-.056.1.023-.306.013-.494.013-.501-.172-2.414-1.728-2.632-2.033-2.649-.298-.74-1.215-.743-1.225-.743l-.07.003-.012.066c-.03.226.079.545.122.674l-.096.083c-.295-.2-1.78-1.197-2.35-1.376-.248-.08-.368-.007-.424.066-.099.126-.052.321-.006.392.142.238 1.75 1.392 2.151 1.674-.324.404-.834.878-.88.921-.014.007-.043.004-.08 0a.332.332 0 0 0-.195.007c-.186.06-.354.394-.354.398-.053.093-.02.292.013.418-.152.073-.291.056-.295.056-.01 0-.082-.013-.155.03a.213.213 0 0 0-.086.152c-.014.083.05.19.076.236.179.295.642.321.778.321l.437.448.01.01.016.01c.209.093.344-.037.351-.04l.004-.007.39-.46.543-.289c.06.033.116.063.165.086-.447.276-.652.68-.721.836-.192-.033-.51-.073-.52-.076l-.073-.01-.02.07-.264.914c-.235.166-.45.524-.55.7l-.37-.381-.113-.116-.98-1.022c-.182-.212-.4-.328-.646-.338-.367-.016-.678.206-.797.309l-.007-.004a.439.439 0 0 0 .185-.301.412.412 0 0 0-.191-.385 2.072 2.072 0 0 0-.05-.036l.874-2.345c.208-.58.03-.878-.16-1.024a1.042 1.042 0 0 0-.585-.202c-.106-.27-.245-.431-.41-.474a.374.374 0 0 0-.246.013c-.072-.282-.198-.461-.377-.531-.209-.073-.42.02-.536.093-.083-.232-.196-.375-.345-.424a.477.477 0 0 0-.3.02l.003-1.453L81.793 0v1.43c-.175-.064-.328-.06-.453.012-.172.096-.245.295-.271.421-.223-.106-.411-.126-.553-.043-.193.106-.249.355-.269.491-.182-.04-.334-.02-.447.063-.142.11-.185.295-.195.395-.232.04-.407.129-.513.295-.248.38-.05.961-.043.981 0 0 .42 1.492.483 1.708-.159.381-1.661 2.314-2.28 3.097l-.494-.163a.315.315 0 0 0 .13-.027l.056-.023-.007-.066c-.017-.123-.036-.202-.053-.279-.04-.152-.066-.242.01-.64.132-.682-.146-1.405-.156-1.432-.208-.686-.208-.915-.205-.962a.662.662 0 0 0 .106-.537c-.07-.314-.354-.534-.46-.603.016-.249.073-1.048.006-1.224-.056-.152-.148-.245-.268-.278-.145-.033-.294.033-.384.09-.076-.143-.172-.239-.294-.269a.428.428 0 0 0-.321.056c-.12-.165-.252-.258-.394-.262a.48.48 0 0 0-.321.146l-.258-.776-.027-.08-.08.028-.804.271-.08.027.024.076.265.822c-.15-.013-.268.02-.335.106-.102.116-.089.289-.07.395a.372.372 0 0 0-.264.166c-.073.122-.047.275-.016.368a.484.484 0 0 0-.265.149c-.116.17-.063.391-.04.497.003.017.006.03.01.037.006.063.199.404.56 1.011-.173.55.109.809.231.921.01.007.02.017.027.028-.143.59.142 1.2.234 1.376l-.076.089c-.367.454-.923 1.134-2.069 1.396l-4.025 1.22-2.003.583c-.857.259-1.923.452-2.118-.082l-.01-.023c-.013-.04-.066-.425.149-.853.212-.43.612-.742 1.179-.925.115.172.526.653 1.482.604l.083-.007-.01-.086c0-.023-.01-.063-.02-.103.15.056.216.096.282.143.03.02.063.046.112.069l.113.07.01-.13c.003-.056.02-.44-.11-.686l4.98-.02c.026 0 1.658-.175 1.618-2.277C72.842 5.04 70.727 5.01 69.707 5a3.72 3.72 0 0 1-.44-.017c-.056-.006-.146-.016-.245-.03-.288-.033-.82-.095-.907-.142l-.07-.04-.04.067a.536.536 0 0 0-.045.473c-.408-.086-.798-.188-.858-.232l-.096-.07-.033.117c0 .013-.07.279.036.527-.374-.136-.79-.309-.854-.378l-.102-.11-.04.143c-.007.033-.205.793.665 1.44.88.66 2.35.543 3.03.215.383-.182 1.542-.753 1.992-.458.136.083.199.25.192.494-.043 1.158-.808 1.134-1.367 1.115-.08-.004-.149-.007-.215-.007l-4.056.053c.084-.14.17-.375.103-.756l-.02-.12-.099.067c-.089.053-.218.119-.327.172l.02-.046-.103-.024c-.01-.003-.983-.172-1.566.83-.136.043-.837.282-1.33.699-.365.315-1.01 1.163-.855 2.135.086.527.35.74.507.83-.146.181-.222.38-.21.586.027.388.349.65.362.663l.086.07.046-.103c.252-.653.755-.875 1.864-1.154.457-.12.894-.245 1.142-.318a4.91 4.91 0 0 0-.291.762c-.066.222-.133.428-.196.501-.284.325-.592.17-.85-.017l-.03-.023h-.004l-.003-.003a.317.317 0 0 0-.288-.01c-.33.163-.51.905-.559 1.144-.45-.007-.758.09-.91.295a.566.566 0 0 0-.09.467c-.113.68-.281 1.814-.159 1.97.424.537.705.421.735.405l.05-.02v-.053l-.007-.448.325.003c.396.7.784.875.84.892.113.063.404.249.477.358l.08.116.062-.125c.02-.04.163-.342.106-.555.033-.01.073-.023.113-.03.053.014.205.193.328.389l.046.07.07-.047c.257-.18.241-.52.228-.644.172-.148.155-.46.129-.616.318-.047.659.023.791.063l.017.51.003.013.003.014c.229.57.834.653.888.66.29.083.711.142 1.25.173l.05.006c.914.06 2.013.023 2.97-.017a42.645 42.645 0 0 0 3.356-.299c.4.087.662.06.824.014l-.026.073.106.02c.417.073.662-.113.768-.229.185.203.414.312.424.319l.053.023.043-.04.016-.02.07.053.04.033.046-.023c.198-.1.271-.292.298-.437.07.053.139.082.208.076a.241.241 0 0 0 .12-.043c.119.155.344.258.373.271l.063.024.037-.053.053-.074c.165.17.387.23.397.233l.053.013.033-.047c.255-.331.258-.789.238-1.017l.04-.03a.371.371 0 0 0 .083-.146.667.667 0 0 0 .215.02c-.205.116-.318.245-.251.464.105.335.235.431.649.487.082.01.085.01.102.057.03.06.066.139.188.258.1.096.232.12.365.067.182-.067.354-.265.364-.428a1.157 1.157 0 0 0-.03-.381c.03.03.063.056.1.08.21.149.963.788.97.795l.052.04.05-.037.8-.636c.491.311.785.315.898.315h.013l.007-.004a.228.228 0 0 0 .175-.1.294.294 0 0 0 .057-.151c.761.493 1.74.374 1.787.37h.026l.017-.023c.076-.066.116-.139.113-.212 0 0 0-.006-.007-.01.152.02.328.133.394.183.291.239.762.066.778.056l.063-.023-.01-.063a.275.275 0 0 0-.083-.17.25.25 0 0 0 .03-.145c.11.056.185.162.189.162.212.276.55.2.563.196l.046-.01.016-.043c.285.212.613.103.63.103l.016-.013.013-.014c.09-.08.093-.209.076-.301 1.99.63 4.953.543 4.982.54 3.943-.02 4.532-.786 4.555-.816.162-.218.096-.44.093-.454 0 0-.04-.129-.073-.215.238-.057.447-.057.546-.05.004.106-.03.351-.324.606-.136.12-.103.252-.063.309l.004.003.002.004c.735.802 1.765-.087 1.778-.093l.033-.03-.006-.05-.04-.222c.136-.08.265-.239.324-.318l.394.109c-.046.252-.132.49-.136.49l-.026.084.086.026c.232.06.44.04.613-.066.3-.173.397-.52.4-.544l.003-.016-.003-.014-.36-1.923-.004-.013-.003-.007c-.163-.361-1.219-.484-1.58-.514.004-.202-.006-.696-.258-.855-.118-.08-.27-.066-.447.033-.3.17-.783.053-.95.007.014-.086.047-.298.053-.607.007-.298-.075-.845-.115-1.087.46.113.625.149 1.085.248l.64.146c.95.215 1.211.746 1.25.852.004 0 .12.288.12.288l.013.05.05.004c.053.007.053.007.245-.285.162-.299.248-.554.125-.846a.733.733 0 0 0-.136-.202c.332-.202.497-.537.523-.604l-.006.007c.195-.434.328-1.177.033-1.84zm-14.121 6.654c-.236-.086-.272-.199-.272-.199-.003-.016-.013-.073.096-.149a.529.529 0 0 1 .146-.08c.04.173.04.332.03.428zm8.272-.65c-.328.053-1.778.28-3.165.246.282-.252.91-.783 1.387-.899.037-.006.4-.09.47-.318.083-.259-.235-.62-.503-.928.033-.01.09-.033.186-.057.022 0 .218-.023.298-.023.304-.006.92-.182 1.118-.242.17.308.54.78 1.262 1.064-.275.126-.745.348-.838.451a.954.954 0 0 0-.215.706zm-5.495-.742l-.06.023c-.232.086-.51.193-.84.285l-.12.03.08.103.3.381a5.447 5.447 0 0 1-.638-.136c-.006-.292.063-.47.159-.703.033-.09.07-.199.11-.312a.288.288 0 0 0-.04-.278c-.269-.381-1.464-.441-1.705-.448l-.398-.368-.063-.059c.004 0-.91-.856-.91-.856l-.142-.13v.19c0 .245-.122.63-.242.909-.09.188-.175.36-.215.44l-.278-.063c.07-.112.153-.248.185-.345.252-.573.342-1.428.361-1.667.093-.006.281.016.673.12l.218.059c.275.073.57.162.854.252.407.12.754.225.936.258l.143.03c.417.077.546.093.606.05a.103.103 0 0 0 .04-.076c.01-.216.059-.305.095-.335.176.166.537.258.822.305.056.01.168.02.171.024.636.082 1.424.023 1.831-.14l.291-.113c.348-.142.679-.275 1.02-.352-1.125.766-1.635 1.121-1.523 1.612.043.202.325.458.659.75.066.055.136.119.182.162-1.116.799-1.48.52-1.516.484-.523-.405-.97-.14-1.046-.086zm-3.39-4.248l-.606-.03-.146-.016s-.175-.01-.277-.02a5.602 5.602 0 0 0-.245-1.488 7.264 7.264 0 0 0-.368-.902c.053.066.123.139.183.215.085.1 1.274 1.453 1.452 1.665-.02.245-.006.46.007.576zm7.385-1.495c.566.05 2.06.033 3.152.027h.142a1.02 1.02 0 0 0-.199.457l-.063.352-.03.172.156-.09.302-.185s.073-.037.172-.083l-.047.063.14.01.271.037c.007 0 .824.086 1.42-.588.07.027.169.054.3.097.402.13.673.328.802.6.271.563-.142 1.127-.215 1.19-.291.252-.884.206-.91.202-2.023-.397-4.99-1.114-5.277-1.18-.092-.136-.195-.215-.31-.232a.319.319 0 0 0-.213.053l-.182-.063c-.066-.136-.152-.222-.265-.255a.438.438 0 0 0-.318.06c-.34-.117-1.357-.65-1.658-.813.523-.603.824-1.25.99-1.804.036.574.215 1.042.55 1.386a1.949 1.949 0 0 0 1.29.587zm-17.044 1.13c-.04.345-.076.807-.043 1.188l-.526-.322c.003 0-.186-.136-.355-.249.225.004.503-.016.596-.102.027-.024.185-.272.328-.514zm-1.566 2.64a1.27 1.27 0 0 0-.669-.235h-.04l-.023.026a.369.369 0 0 0-.036.06c-.249-.146-.61-.163-.63-.163l-.039-.003-.026.037c-.053.066-.053.159-.04.232-.288-.023-.566.006-.58.006l-.069.01v.07c0 .209.06.444.166.623l.003.007.003.006c.024.027.047.06.074.087-.08 0-.146.016-.19.053-.076.063-.072.156-.069.195 0 .05.036.146.083.243-.043-.027-.08-.05-.103-.06a.675.675 0 0 0-.572-.027c-.332-.103-.61-.103-.812.02a.625.625 0 0 0-.28.352c-.117.02-.249.105-.355.188a.857.857 0 0 0-.13.116 3.96 3.96 0 0 1-.575-.122 3.305 3.305 0 0 1-.54-.232l.275-.412c.602.037 1.234-.576 1.261-.603l.143-.142h-.202c-.66 0-1.136-.481-1.378-.793.332.162.742.342.99.415 1.765.524 2.606-.22 2.807-.445.54.368.848.192.861.186.156-.106.318-.196.37-.206.534.382 1.47.7 1.868.826a.83.83 0 0 0-.229.322c-.205-.12-.447-.06-.579-.01a.795.795 0 0 0-.658-.663l-.064-.01-.016.046zm-1.526 2.42c0-.096-.007-.231-.053-.298-.007-.01-.007-.02.003-.066.007-.05.023-.116-.006-.202a3.189 3.189 0 0 0-.073-.18l.063.024c.132.043.132.043.093.182v.036c.052.18.27.339.45.448l-.477.056zm-6.637-.212v-.013l-.004-.01c-.178-.584-1.006-.75-1.28-.79.02-.105.059-.28.092-.383.056-.173.208-.408.282-.515.423.193 1.47.382 1.853.445-.139.135-.344.235-.526.322-.07.033-.139.062-.199.095-.311.173-.168.73-.152.793v.007h.003c.086.225.285.288.49.364l.086.03c.004 0 .07.023.07.023.142.05.576.143.99.225-1.245-.006-1.702-.04-1.87-.062.151-.279.165-.518.165-.531zM98.37 7.351l.017.348a.985.985 0 0 0 .191.547l-3.287-.037c-1-.149-.983-1.094-.962-1.31a.546.546 0 0 1 .274-.354c.47-.249 1.3.04 1.307.043.914.411 1.732.627 2.457.657l.003.106z"/>
        <path fill="#131514" d="M85.1 6.417c.004 0 .004.003.007.007 0 .003.006.003.006.006l-.013-.013"/>
        <path fill="#FFFFFE" d="M82.538.735l-.122.08a.126.126 0 0 0-.047-.06l.07-.132.142-.276h-.562l.139.276.07.132a.158.158 0 0 0-.054.06l-.116-.08-.245-.155v.633l.245-.163.116-.073c.013.02.033.043.053.057l-.07.132-.138.272h.562l-.142-.272-.07-.132a.163.163 0 0 0 .047-.057l.122.073.245.163V.58l-.245.155M80.744 2.091c-.222.044-.355.309-.308.59.232-.132.483-.245.755-.338-.1-.179-.279-.291-.447-.252"/>
        <path fill="#FFFFFE" d="M81.88 2.2c-.056-.299-.278-.501-.483-.458-.205.04-.321.315-.261.61 0 .007.003.017.006.023.235-.07.487-.126.738-.156V2.2M83.611 2.267c-.013-.302-.198-.54-.404-.53-.178.006-.321.188-.354.43.265.024.517.077.758.143v-.043M84.612 2.611c-.014-.298-.192-.537-.408-.527-.135.007-.248.116-.31.272.258.079.496.182.718.302V2.61M82.313 2.223a.499.499 0 0 0 .497-.487h-.997a.504.504 0 0 0 .5.487M79.24 15.034l-.44-.45a.49.49 0 0 1-.021.191c-.03.093-.086.14-.086.14l.04.38c.086 0 .152.017.212.047.122.057.192.146.192.146.182-.169.102-.454.102-.454M63.517 14.242c-.38 1.413-.096 2.248-.096 2.248l-.307.01V14.93c-.557-.165-.315-.427-.315-.427.262-.332.718-.262.718-.262M64.781 17.403c.14.216.05.49.05.49-.066-.212-.351-.261-.351-.261.146-.415.301-.23.301-.23M65.529 17.289a.625.625 0 0 0 .162-.275c.285.166.12.573.12.573-.064-.215-.282-.298-.282-.298M65.173 16.126c.45.027.484.382.484.382.221.192.198-.094.198-.094-.238-.782-.682-.288-.682-.288"/>
        <path fill="#FFFFFE" d="M65.57 16.743c.14.047.209-.076.209-.076.1.261-.03.503-.03.503-.04-.218-.179-.218-.179-.218v-.209M66.206 15.394c.44.073.795-.809.795-.809.698-.03 1.026.319 1.026.319.304.298-.096.261-.096.261-.44-.033-1.165.14-1.165.14-.103.046-.06.212-.06.212.06.166.083.762.083.762-.364-.096-.861-.036-.861-.036-.357-.948-.996-.364-.996-.364-.272-.63.069-1.167.069-1.167.083-.028.593-.09 1 0 .347.072.056.643.056.643l.149.04"/>
        <path fill="#FFFFFE" d="M66.907 15.691c.291.57 3.575.415 4.926.352 1.026-.046 1.026-.053 4.098-.418-.126.663-.037 1.442-.037 1.442.06.358-.54.461-.54.461-4.766.84-7.361.23-7.361.23-.86-.09-1.003-.568-.997-.72.03-.508-.09-1.347-.09-1.347M72.8 14.52c.364-.52.864-.166.864-.166.116.066.242.332.242.332-.222 0-.292.185-.292.185-.205-.374-.814-.351-.814-.351M73.504 15.64c-.056-.233.123-.362.123-.362.14.09.215.321.215.321-.1.02-.338.04-.338.04M73.84 15.176c.242.116.308.46.308.46l.222-.03c.06-.427-.225-.675-.225-.675-.242.023-.305.245-.305.245M73.84 14.236c.14.076.262.401.262.401.182.117.248.425.248.425.142-.093.374-.073.374-.073-.12-.78-.884-.753-.884-.753"/>
        <path fill="#FFFFFE" d="M74.533 15.361l.027.279.324-.057c.02-.165-.076-.294-.076-.294-.182-.047-.275.072-.275.072M76.658 13.11c-.04.092 0 .261 0 .261-.159-.262-.678-.428-.678-.428-.063.116.02.428.02.428-.262-.5-.825-.524-.825-.524a.55.55 0 0 0 .139.355c-.258-.189-.78-.116-.78-.116.078.497.499.856.499.856l-.037.12c-.32-.217-.407-.05-.407-.05-.03.032.007.095.007.095.159.285.801.52.801.52-.182.074-.241.213-.241.213.221.451.92.428.92.428a1.498 1.498 0 0 1 .023-.949v.004l-1.321-1.07s1.036.712 1.423.904c.282-.268.68-.199.68-.199l.181-.215c-.04-.356-.404-.634-.404-.634"/>
        <path fill="#FFFFFE" d="M76.39 15.286c-.201-.358-.059-.617-.059-.617.159-.524.662-.45.662-.45.169.042.238-.074.238-.074.328-.45.527-.17.527-.17.096.154.413.187.413.187.325.066.143.434.143.434-.116.202.06.265.06.265.658.067.1 1.114.1 1.114-.104.173-.378.093-.378.093-.103-.007-.08.073-.08.073.14.235 0 .355 0 .355-.241.262-.566.215-.566.215-.437 0-.457-.215-.457-.215-.06-.212-.324-.212-.324-.212-.361-.1-.4-.478-.4-.478-.017-.189.102-.282.102-.282.139-.099.02-.238.02-.238"/>
        <path fill="#131514" d="M76.888 14.367c-.334-.325-.45.043-.377.153.023.043.205.142-.073.212-.275.066-.199.381.083.405.285.023.503-.11.54-.223.033-.112.04-.34-.173-.547M78.138 14.857c.317-.381-.076-.471-.186-.395-.043.03-.136.226-.225-.056-.086-.285-.414-.186-.42.11-.007.301.152.527.271.553.12.03.364.023.56-.212"/>
        <path fill="#131514" d="M77.935 15.709c.38.209.388-.15.302-.23-.03-.03-.216-.075.01-.201.227-.13.089-.388-.17-.342-.257.05-.42.222-.424.332a.501.501 0 0 0 .282.44M76.998 15.964c-.153.411.202.368.268.268.026-.036.043-.222.202-.016.155.208.394.03.314-.216-.083-.248-.278-.387-.387-.374a.5.5 0 0 0-.397.338"/>
        <path fill="#131514" d="M76.85 15.285c-.393.057-.2.325-.099.332.047.006.202-.06.11.156-.096.218.149.331.308.159.165-.18.191-.401.132-.478a.444.444 0 0 0-.45-.169"/>
        <path fill="#FFFFFE" d="M78 13.884s.076-.299.205-.331c.12-.033.159.02.159.02.04.407.301.692.301.692l-.04.567c-.062-.212-.284-.212-.284-.212.162-.5-.341-.736-.341-.736M77.026 16.69l-.202-.023-.484.57c-.036.308-.42.45-.42.45.765-.072.864-.354.864-.354-.06.235-.162.427-.162.427.742-.245.404-1.07.404-1.07"/>
        <path fill="#FFFFFE" d="M77.099 16.667c.301.072.48.052.48.052.404.352-.02.9-.02.9-.119-.263-.119-.69-.119-.69-.179.238-.06.64-.06.64-.34-.14-.42-.498-.42-.498 0-.232.139-.404.139-.404M79.268 15.592s.122.043.222-.027c0 0-.282-.381-.58-.265 0 0-.016.41-.245.67.107.122.507.62.52.948 0 0-.35-.567-.698-.8-.03.014-.05.034-.08.04 0 0 .017.428-.407.521 0 0 .086.239.206.261 0 0 .02.197.099.263 0 0 .179.142.198-.209 0 0 .123.375.384.448 0 0 .12-.097.06-.379 0 0 .06.405.423.544 0 0 .335-.78 0-1.184 0 0 .073.09.262.09 0 0 .096-.713-.364-.921M80.455 13.38c.18-.056.262-.186.262-.186.1.282-.1.614-.1.614.017-.232-.168-.427-.162-.427M80.088 13.783c.181-.059.198-.241.198-.241.185.235.123.633.123.633a1.896 1.896 0 0 0-.321-.392M79.911 9.375l-.003.534c-.464.968-.166 2.23-.166 2.23a.75.75 0 0 0-.245.15c-.4-1.88.414-2.914.414-2.914M82.393 17.473l.52-.395v-1.452l.404-.256-.003 1.847-.92.736-.924-.736-.003-1.94.403.273v1.528l.523.395"/>
        <path fill="#FFFFFE" d="M82.336 15.996c.066 0 .123-.086.123-.19 0-.098-.057-.181-.123-.181-.069 0-.129.083-.129.182 0 .103.06.19.13.19M82.336 17.035c.066 0 .123-.08.123-.186 0-.1-.057-.182-.123-.182-.069 0-.129.083-.129.182 0 .106.06.186.13.186"/>
        <path fill="#FFFFFE" d="M82.337 16.34c.072 0 .139-.08.139-.182s-.067-.186-.14-.186c-.078 0-.145.084-.145.186 0 .103.067.183.146.183M82.683 16.34c.08 0 .14-.08.14-.182s-.06-.186-.14-.186c-.076 0-.145.084-.145.186 0 .103.07.183.145.183M80.526 14.583c.1.47-.383.381-.383.381-.18.332.082.332.082.332.378.073.58-.12.543-.358-.036-.226-.242-.355-.242-.355"/>
        <path fill="#FFFFFE" d="M79.755 14.204c-.08-.269.086-.315.086-.315.165.44.622.809.622.809.04.216-.218.225-.218.225a1.582 1.582 0 0 1-.49-.72M80.427 14.141c.073-.09.12-.252.12-.252.039.093.108.119.108.119l.093-.083a.94.94 0 0 0 .155.252.42.42 0 0 0-.251.202c-.162-.112-.225-.238-.225-.238M84.33 14.583c-.003.037.136.15.136.15l-.414.699s-.129-.086-.159-.196c-.003 0 .437-.653.437-.653M84.657 14.583l-.417.703c.679.45 1.093-.69 1.093-.69a1.23 1.23 0 0 1-.676-.013M84.933 9.028v.603c.281.451.34 1.44.34 1.44s.004-.054.133-.157c.093-.073.123-.082.123-.082-.02-.999-.596-1.804-.596-1.804M84.24 17.032c.401.59 1.682.59 1.682.59-.116-.335-.5-.478-.5-.478.563-.231 1.083.289 1.083.289.3.285.662.285.662.285-.16-.19-.302-.309-.302-.309.182.074.341.024.341.024-.198-.332-.76-.663-.76-.663.601-.305 1.105.405 1.105.405.258.377.503.447.503.447l-.186-.544c.186.497.844.64.844.64.1-.096.063-.202.063-.202-.542-.176-.49-.355-.49-.355l-.04-.554c-.625-.099-.536-.434-.536-.434.084-.494.544-.57.544-.57s-.133-.61-.06-.66c.357-.272 1.079-.133 1.079-.133-.076-.404-.384-.271-.384-.271 0-.332-.331-.302-.331-.302l-1.023.875c.162.812-.264 1.015-.264 1.015-.703.45-1.226-.19-1.226-.19l-.456.296c.265.006.711.354.698.344-.265-.185-.934-.198-.934-.198l-1.112.653"/>
        <path fill="#FFFFFE" d="M85.639 14.73c.103 1.048 1.066 1.26 1.066 1.26.619.073.619-.424.619-.424 0-1.31-1.301-1.33-1.301-1.33-.503.047-.384.494-.384.494M89.788 14.939c.702-.176.036-.507.036-.507-.599-.236-.73-.193-.73-.193a.77.77 0 0 1 .314.262c.317.023.38.438.38.438M89.53 15.594l.168-.663c-.38.146-.626.053-.626.053-.423-.073-.586.046-.586.046-.456.282 1.046.564 1.043.564M90.48 15.55l.133.152.682-.073-.41.282.684.073-.311-.706-.778.272"/>
        <path fill="#FFFFFE" d="M84.587 14.403c.198.259.804.192.804.192.11-.123.03-.424.03-.424-.06-.193-.013-.289-.013-.289.413-.003.099.544.099.544.622-.405.02-1.273.02-1.273.298-1.665 1.327-1.346 1.426-1.336.42.036 1.464.374 1.464.374.38.123 1.641.378 1.684.358.037-.02-.043-.136.09-.232.526-.351.649-1.502.649-1.502 0-.185.082-.093.082-.093.146.693-.334 1.476-.334 1.476.41.47 1.927.385 1.927.385.738-.096 1.46-.435 1.46-.435.877-.348 1.767-.278 1.767-.278l-.05-.196c-.7-.305-.221-.69-.221-.69l-.169-.321c-1.46-.385-3.257-1.387-3.257-1.387-2.066-1.117-3.132-.931-3.132-.931-.897.955-.738 2.52-.738 2.52l.503.047c-.043-1.091.636-1.658.636-1.658.185-.073.046.139.046.139-.725 1.068-.423 1.804-.423 1.804-.322-.143-2.205-.233-2.205-.233-1.126-.126-1.384.896-1.384.896l-.36 1.283c-.378.786-.401 1.26-.401 1.26"/>
        <path fill="#FFFFFE" d="M87.9 10.06c.067-.455.226-.902.226-.902L86.878 7.81c-.64-.756-1.003-.464-1.003-.464l-.248.126c.281.212.477.547.477.547l.251.196 1.545 1.843M88.517 2.9c-.02-.462-.208-.541-.208-.541-.51-.355-.576-.266-.576-.266-.126.126.244.381.244.381l.54.425"/>
        <path fill="#FFFFFE" d="M89.082 3.365c.066-.388-.308-.706-.308-.706l-.374-.228c.185.169.175.55.175.55l.507.384M89.295 3.43l.434.32c.003-.452-.15-.657-.15-.657l-.486-.315c.288.252.202.653.202.653M88.108 5.904c-.298.116-.41.02-.4.066.056.306.532.292.532.292.2 0 .378-.202.378-.202v-.106c-.192.172-.338.11-.361.106-.083-.013-.11-.173-.149-.156"/>
        <path fill="#FFFFFE" d="M89.066 6.866c-.04-.026-.331-.361-.331-.361s.377-.229.222-.498c-.08-.132-.298.053-.354.05-.166-.007-.225-.398-.196-.49a.75.75 0 0 1 .212-.273c.06-.033.206.03.301-.022.037-.021 1.305-1.407 1.305-1.407.238-.54.596-.47.596-.47-.142-.166-.258-.617-.258-.617.718 0 .817.736.817.736 2.189 1.734.804 4.542.804 4.542-.708-.487-2.217-.802-2.217-.802.245-.504.88-.865.88-.865.848-.017.692-1.045.692-1.045-.08-.15-.13.027-.13.027-.108 1.647-1.409.328-1.409.328-.12-.096-.1.083-.1.083.06.143.295.298.295.298s-.533.24-.599.302c-.073.066-.42.458-.42.458s-.04.076-.11.026"/>
        <path fill="#FFFFFE" d="M89.787 3.125l.414.275c-.043.212-.288.398-.288.398.073-.329-.126-.673-.126-.673M91.52 3.476c.712-.07 1.321.842 1.314.842-.364-.338-.658-.255-.658-.255-.222-.262-.656-.587-.656-.587"/>
        <path fill="#FFFFFE" d="M92.213 4.17c.16.234.292.662.292.662.572.136.78.57.78.57-.35-1.35-1.072-1.233-1.072-1.233M92.56 5.208c.9.252.682 1.45.682 1.45a.916.916 0 0 0-.516-.458c-.033-.78-.166-.992-.166-.992M92.626 6.25c.023.212-.066.567-.066.567.337.282.285.617.285.617.125-.216.215-.697.215-.697-.083-.331-.434-.487-.434-.487"/>
        <path fill="#FFFFFE" d="M92.624 6.944c-.04.312-.41 1.018-.41 1.018l.35.239c.444-.683.06-1.257.06-1.257M94.893 12.213a1.455 1.455 0 0 1 1.404.325c.212.411.245.915.245.915-.55.292-1.553.315-1.553.315-.483.122-.139.385-.139.385.81.759.159.901.159.901-.765.14-1.628 1.075-1.628 1.075-.603.046-1.464-.017-1.464-.017-.242-.17-.397-.742-.397-.742.321-.286.599.04.599.04.646.42 1.662-.362 1.662-.362.132-.093.367-.17.367-.17.09-.102-.05-.202-.05-.202a3.667 3.667 0 0 1-.75-.666c-.242-.378-.024-.57-.024-.57.341-.342 1.57-1.227 1.57-1.227"/>
        <path fill="#FFFFFE" d="M88.4 15.625c.109.713.076 1.13.086 1.724.006.312 2.304.809 4.568.809 5.816 0 5.296-1.071 5.286-1.094-.261-.584-.387-1.32-.387-1.32s-.947.57-4.902.57c-3.708 0-4.651-.689-4.651-.689"/>
        <path fill="#FFFFFE" d="M98.633 16.284l-.301-.965c-.202-.331-.52-.119-.52-.119-.262.195-.583.086-.583.086-.34-.046-.04-.275-.04-.275.46-.308.904-.428.904-.428.338.146.963.1.963.1.56-.077.44.374.44.374.017.432-.115 1.184-.115 1.184-.338-.027-.748.043-.748.043M99.675 16.813s-.016.003-.083-.05c-.062-.053-.062-.096-.062-.096s-.047.43-.375.73c0 0-.036.032.04.085l.11.077.37-.747M99.848 16.713l-.355.746c.646.1 1.113-.315 1.113-.315l-.1-.477c-.304.148-.658.046-.658.046M100.875 16.463l.42.12c.097-.604-.115-1.19-.115-1.19.48.168.5-.02.5-.02.208-.743-1.493-.79-1.493-.79 0 .23.092.74.092.74.801.265.596 1.14.596 1.14M76.693 6.768c0-.01-.006-.027-.01-.043a1.976 1.976 0 0 0 .026.793s-.22.022-.33-.113c0 0 .056.4-.225.964-.282.564-.275.537-.311.67 0 0-.143-.19-.834-.488-.182-.076-.517-.364-.603-.576 0 0-.093.11-.292.189 0 0-.056-.322-.258-.6-.228-.312-.264-.27-.274-.382-.014-.116 0-.291 0-.291.026.152.135.301.354.543.215.249.248.557.248.557.189-.076.219-.275.219-.275.046.14.387.55.606.656.638.319.757.421.757.421.034-.142.027-.056.302-.63.251-.52.168-1.057.168-1.057a.614.614 0 0 0 .358.292c-.026-.235-.07-.398-.026-.624.023-.112.042-.192.053-.255-.057-.192-.133-.45-.156-.587-.05-.338-.153-.55-.053-.673.225-.291.003-.716-.295-.74-1.205-.088-2.72.85-2.89 1.145-.294.51.315.683.265.809-.195.504-.056.872.209 1.32.265.45.291 1.06.291 1.06.225-.129.298-.44.298-.44.17.977.867 1.15.867 1.15.298.083.43.348.43.348.09-.279.11-.46.11-.46.083.384.367.424.367.424.053-.359.176-.627.176-.627.254-.537.132-.938.132-.938.116.212.37.271.37.271-.142-.504-.068-.543.03-.948.074-.268-.076-.852-.079-.865"/>
        <path fill="#131514" d="M76.705 7.688a1.902 1.902 0 0 1-.03-.733l-.003.004c.007-.017.007-.03.01-.047l-.04-.006-.037-.186c.007-.017.01-.037.014-.05l.01-.06-.08-.013-.01.06c-.013.08-.033.202-.05.292-.04.182-.016.328.007.494l.01.076a.554.554 0 0 1-.278-.249l-.072.024c0 .006.079.53-.163 1.028-.133.281-.202.404-.238.473a.822.822 0 0 0-.053.117c-.077-.053-.268-.17-.722-.392-.208-.106-.543-.514-.586-.636l-.076.006c0 .007-.026.14-.145.22a1.156 1.156 0 0 0-.252-.521c-.195-.22-.318-.375-.34-.524l-.08.003c0 .01-.017.183 0 .302.01.073.03.096.08.153.042.043.102.112.2.247.196.266.253.578.253.581l.006.043.05-.016c.135-.056.221-.12.268-.156.109.202.404.468.592.547.666.291.818.474.818.474l.05.06.02-.073c.026-.096.026-.1.155-.361l.152-.302c.212-.421.235-.75.235-.896.123.077.285.067.295.067l.043-.007-.013-.043"/>
        <path fill="#FFFFFE" d="M85.799 4.192l-.172.47-.202-.503-.345.908.407-.103s-.095.302-.172.405c-.112.15-.946.335-.973-.239l.003-.013c-.01-.209.01-.577.487-.262 0 0 .282-.802-.467-.478 0 0 .298-.454-.132-.779h-.007c-.436.312-.152.776-.152.776-.735-.344-.473.461-.473.461.476-.299.493.07.476.279v.01c-.02.242-.168.344-.569.34 0 0-.712-.032-.596-.861 0 0 .242-.15.493.246l-.01-1.085s-.175.325-.5.371c0 0-.138-.314.23-.663h-.418l-.53.003c.368.346.23.66.23.66-.33-.046-.498-.368-.498-.368L81.9 4.85c.252-.395.494-.246.494-.246.115.829-.57.865-.57.865-.397.004-.58-.102-.6-.341l-.002-.01c-.007-.209 0-.577.483-.275 0 0 .251-.812-.483-.465 0 0 .288-.464-.153-.775h-.003c-.427.324-.13.786-.13.786-.532-.236-.486.261-.45.467.458-.302.48.06.478.265v.014c-.03.573-1.07.503-1.136.318-.04-.126-.192-.547-.192-.547l.374.215-.129-.955-.282.395-.072-.497-.14.357.583 1.977c1.609-.395 3.751-.348 5.184-.01l.715-1.85-.07-.345M73.892 2.872l-.21-.218.262-.01-.149-.421-.201.212.02-.352-.467.16.248.265-.245-.024.136.422.208-.176-.03.381a.3.3 0 0 0 .314.341.298.298 0 0 0 .286-.314c-.01-.103-.086-.186-.172-.266"/>
        <path fill="#FFFFFE" d="M74.31 2.814s.03.033.043.1a.214.214 0 0 1-.013.092c.844-.156 1.36.259 1.54.465.032.04-.01.338-.024.368-.053.089-.45.368-.58.092v-.006c-.042-.1-.098-.285.23-.235 0 0 .003-.451-.355-.133 0 0 .083-.285-.222-.352v.004c-.185.249.06.41.06.41-.48-.01-.186.329-.186.329.22-.252.292-.07.325.03l.003.007c.033.119-.033.205-.258.291 0 0-.407.136-.496-.295 0 0 .105-.123.317.014l-.205-.524s-.036.192-.209.285c0 0-.139-.123.004-.372l-.235.09-.298.116c.268.09.252.275.252.275-.196.047-.352-.076-.352-.076l.2.53c.065-.242.23-.225.23-.225.226.381-.158.55-.158.55-.225.087-.348.073-.404-.043v-.003c-.046-.096-.106-.278.219-.235 0 0-.007-.455-.358-.126 0 0 .073-.289-.232-.342h-.003c-.182.245.073.408.073.408-.497 0-.172.331-.169.331.205-.255.288-.08.321.024v.003c.096.288-.41.401-.48.324a.897.897 0 0 1-.212-.34c-.026-.087-.165-.69.689-1.257 0 0-.036-.027-.06-.063-.026-.043-.046-.083-.046-.083-.676.464-.768.985-.808 1.382l.566.902c1.291-.838 1.54-.961 2.956-1.157l.054-1.044s-.63-.713-1.719-.511M74.524 11.508a4.334 4.334 0 0 1-.195-.444.921.921 0 0 0 .01.272c.073.384.384.862.384.862-1.483 1.608-3.976-.18-4.671-.495-1.241-.57-3.178 1.519-3.28 2.292-.143 1.07-.646 1.233-.646 1.233.206-.47-.149-.696-.255-.71-.112-.013-1.086-.053-1.146.024-.598.792-.118 1.611-.118 1.611.98-.023.599.796.599.796-.096.242-.318.242-.318.242.04-.813-.742-.763-.742-.763.66.262.52.666.52.666-.232-.089-.374.299-.374.299-.98-.617-.834-1.8-.834-1.8.265-2.043.59-2.321.59-2.321.138-.07.198.02.198.02.483.344.983.026.983.026.192-.096.298-.52.298-.52.238-.886.665-1.376.665-1.376-.006-.01-2.433.626-2.433.626-.967.236-1.211.942-1.211.942-.414-.822.28-1.025.28-1.025-.608-.169-.707-.63-.707-.63-.252-.603.178-2.125 1.698-2.665l.387-.117c.48-.709 1.155-.782 1.155-.782-.096.202-.274.362-.274.362.46-.087.874-.442.874-.442-.024.58-.573.793-.573.793l-.004.013c.752-.016 5.528-.046 5.528-.046 1.192-.183 1.047-1.582 1.047-1.582-.249-1.074-1.682-.494-1.682-.494-3.519 1.78-4.26-.693-4.26-.693 1.569.873 1.88.61 1.88.61-.702-.208-.884-.812-.884-.812 1.447.497 1.576.226 1.576.226-.523-.014-.616-.498-.616-.498.39.15 1.424.166 1.424.166.53-.033 1.433.057 1.433.057 1.56.258 1.55 1.421 1.55 1.421.049 2.003-1.425 2.03-1.425 2.03-.645.06-4.74.02-5.584.023v.017s.573.149.662.722c0 0-.456-.308-.92-.338 0 0 .199.136.315.325 0 0-.692.093-1.149-.61 0 0-.057.013-.41.14-1.308.47-1.321 1.617-1.321 1.617-.133.882 1.075.83 1.075.83.534-.01 1.59-.306 1.59-.306.53-.166 5.826-1.724 6.468-1.956.92-.328 1.595-1.25 1.595-1.25.106.12.232.991.232.991.225-.026.341-.198.341-.198.179.64.957.95.957.95.258.044.523.386.523.386l.125-.319c.12.163.821.833 1.785 1.44l1.794 1.13c.784-.865 1.39-.18 1.274-.116l-.215-.047c-.4-.046-.646.15-.646.15.94-.143 1.07.165 1.07.165.202.478-.41.69-.41.69 0-.617-.6-.593-.6-.593.437.238.407.626.407.626-.178.544-.652.136-.652.136-.175-.073-.44-.312-.44-.312-1.476-.096-2.566-.955-2.728-1.04-.142-.08-.453.308-.691.278-.418-.053-.878-.905-.878-.905"/>
        <path fill="#131514" d="M67.633 17.453c0-.03-.003-.056-.003-.083h.036c.086.007.086-.04.083-.149a42.936 42.936 0 0 0-.023-.643c-.004-.103-.01-.153-.09-.17L67.6 16.4v-.08l.33.044.084.01a.61.61 0 0 1 .36.13.666.666 0 0 1 .235.493c.01.209-.062.371-.195.46-.103.07-.222.06-.347.047a.187.187 0 0 1-.043-.007c-.133-.01-.262-.026-.391-.043zm.351-.202c.003.123.01.163.136.176.175.023.245-.13.228-.458-.01-.318-.103-.487-.268-.507-.123-.013-.123.027-.123.146.01.212.017.431.027.643zM69.473 16.43h-.043c-.08.002-.08.049-.073.155.013.209.023.418.037.633.003.103.01.153.092.16.013.003.027.003.04.003l.003.083a11.89 11.89 0 0 1-.483-.027c-.003-.03-.003-.056-.006-.08h.04c.082-.003.082-.049.075-.155-.013-.212-.023-.421-.036-.637-.003-.1-.006-.149-.09-.16-.016-.002-.026-.005-.042-.009v-.077l.48.03c.003.027.003.054.006.08M70.907 16.704h-.066c-.043-.2-.142-.291-.321-.291-.123-.004-.123.036-.116.159.003.076.01.159.013.238h.06c.102.003.149-.06.145-.195.027 0 .047 0 .07-.004.01.166.023.328.033.497h-.066c-.02-.152-.076-.215-.179-.218h-.056l.02.305c.007.129.013.165.122.165.192 0 .278-.086.311-.325h.07l.02.398c-.288.004-.576 0-.87-.003v-.083c.01 0 .022 0 .035-.003.083-.004.083-.047.074-.153-.01-.209-.027-.42-.04-.626-.007-.107-.01-.15-.09-.16-.016-.003-.03-.003-.043-.003 0-.03-.003-.056-.006-.083.284.01.566.017.85.017.007.12.02.246.03.368M71.557 16.432c-.014 0-.027 0-.04.003-.063.007-.08.037-.073.106.01.163.027.332.04.494.01.126.023.196.036.22.06.082.11.115.209.109.175-.01.225-.123.202-.352a19.77 19.77 0 0 0-.037-.407c-.01-.14-.05-.19-.162-.19l-.003-.072c.122-.01.248-.014.367-.024.004.027.004.05.01.076-.109.01-.139.064-.126.203.01.13.023.252.033.378.014.149.024.258-.036.351-.056.083-.149.13-.281.136-.16.01-.268-.02-.344-.093-.08-.082-.093-.195-.11-.355-.013-.152-.023-.311-.036-.464-.007-.07-.03-.1-.093-.102-.013 0-.027 0-.04-.004l-.006-.08c.159-.002.317-.01.483-.016.003.03.007.053.007.083M74.04 16.674a.41.41 0 0 0-.069.014c-.05-.19-.156-.266-.331-.243-.122.017-.122.06-.113.173.01.076.017.159.03.235l.06-.01c.099-.013.145-.083.132-.212.027-.003.046-.01.07-.013.02.159.036.315.056.477a3.69 3.69 0 0 0-.07.01c-.023-.142-.08-.202-.182-.185l-.06.01c.01.096.02.192.034.295.01.123.023.156.129.142.192-.03.271-.129.295-.361.026 0 .046-.007.07-.014.009.127.022.26.035.385-.29.047-.579.087-.867.123-.003-.023-.003-.053-.006-.076.01-.004.026-.01.04-.01.082-.017.079-.06.065-.16-.02-.199-.046-.404-.066-.603-.01-.103-.016-.15-.096-.143h-.043a.61.61 0 0 1-.006-.08c.28-.029.563-.062.844-.109.016.116.03.236.05.355M75.527 16.38a1.439 1.439 0 0 0-.064.01c-.096-.215-.178-.315-.314-.282-.027.003-.027.01-.02.063.036.245.066.49.096.73.01.07.04.096.103.089.02-.006.04-.006.06-.01l.01.07a9.359 9.359 0 0 1-.53.109.53.53 0 0 1-.007-.08c.02-.003.04-.01.063-.013.06-.013.076-.05.066-.116-.03-.242-.06-.49-.093-.732-.003-.057-.003-.063-.04-.057-.132.023-.185.146-.218.391-.02.007-.043.007-.063.014-.016-.136-.03-.275-.043-.418.308-.053.616-.113.927-.176.023.136.043.272.067.408M89.058 17.073v.08c-.103-.023-.205-.05-.311-.077v-.08c.1.024.12-.022.122-.165 0-.2 0-.395.004-.594 0-.102-.004-.145-.076-.175-.014-.003-.024-.01-.037-.013v-.077c.12.03.241.06.365.087.065.255.131.507.195.762.069-.225.129-.444.195-.666.122.023.242.046.364.076v.076c-.01 0-.023 0-.033-.003-.076-.007-.076.036-.076.14 0 .212 0 .424.003.63.003.102.006.151.08.175.016 0 .023.006.04.006v.08l-.441-.086v-.086c.01.003.02.006.03.006.076.007.079-.033.079-.14 0-.26-.003-.517-.003-.782-.09.319-.186.644-.278.962-.017-.01-.04-.014-.053-.017-.1-.361-.192-.723-.282-1.084 0 .249-.003.491-.003.74 0 .142.016.195.116.225M90.976 16.534c.099.12.153.279.157.447a.524.524 0 0 1-.137.405.395.395 0 0 1-.346.106.58.58 0 0 1-.363-.216.704.704 0 0 1-.154-.45c0-.173.045-.309.14-.402a.393.393 0 0 1 .346-.099c.137.023.26.096.357.209zm-.093.41c-.01-.334-.096-.513-.26-.536-.165-.027-.24.13-.24.46.01.329.096.518.264.548.164.02.246-.14.236-.471zM92.179 16.466c0-.027 0-.05-.003-.08.106.006.214.02.32.026 0 .027.004.054.004.08-.096-.003-.12.047-.11.192l.04.832a5.664 5.664 0 0 1-.105-.01c-.196-.285-.395-.573-.586-.868l.016.537c.004.146.03.199.14.212v.076a5.402 5.402 0 0 1-.335-.033c0-.027 0-.053-.004-.083.106.013.126-.036.12-.179l-.02-.653a.223.223 0 0 0-.133-.116c-.003-.027-.003-.057-.003-.08l.285.03c.175.269.35.534.53.793-.007-.156-.01-.315-.02-.464-.007-.15-.03-.2-.136-.212M92.972 17.433c0-.026-.004-.052-.004-.082h.037c.083-.004.08-.05.072-.153-.006-.212-.024-.424-.034-.633-.01-.103-.014-.152-.092-.16-.014 0-.027-.003-.037-.003-.004-.03-.004-.056-.007-.083.109.007.215.01.323.01h.079c.13.004.242.007.355.09.14.096.224.268.242.467.01.206-.052.378-.174.475-.103.082-.212.082-.341.082h-.038l-.381-.01zm.337-.232c.01.123.017.16.136.16.164.003.228-.153.209-.471-.025-.318-.117-.477-.277-.477-.12 0-.12.04-.113.155.021.209.031.425.045.633zM94.79 17.349h.037c.003.03.006.06.006.083-.149.01-.3.017-.453.02 0-.027-.003-.053-.003-.083.01 0 .023-.003.036-.003.073-.01.073-.054.063-.16-.017-.208-.03-.42-.046-.633-.01-.103-.014-.149-.093-.152-.01 0-.024-.004-.033-.004-.004-.023-.007-.052-.01-.079a7.99 7.99 0 0 0 .39-.016c.295-.014.44.033.46.245.014.152-.079.241-.29.278.129.023.208.076.25.2.024.06.027.119.04.158.01.043.024.063.047.063.046-.006.056-.073.043-.216.02 0 .04 0 .06-.002 0 .019.003.04.003.056.02.212-.043.331-.172.341a.161.161 0 0 1-.142-.07c-.054-.073-.067-.182-.093-.338-.024-.135-.07-.165-.21-.162h-.006c.007.113.017.215.027.325.007.102.013.149.09.149zm-.122-.54c.023 0 .043 0 .06-.004.145-.01.208-.063.195-.215-.013-.13-.083-.192-.179-.19-.106.008-.106.054-.093.17.007.076.014.16.017.238zM96.139 16.436c.106.1.171.241.188.414a.654.654 0 0 1-.095.448.48.48 0 0 1-.334.195.457.457 0 0 1-.368-.119c-.11-.103-.169-.242-.193-.418a.65.65 0 0 1 .106-.444.473.473 0 0 1 .327-.189.471.471 0 0 1 .369.113zm-.056.44c-.038-.33-.137-.49-.302-.47-.159.016-.223.192-.196.527.037.335.14.497.303.48.16-.016.23-.198.195-.537zM96.82 16.402c-.016 0-.023.004-.032.007-.074.02-.07.066-.06.17.023.21.049.423.073.632.013.11.02.156.095.146.014 0 .024-.004.034-.004.006.03.006.054.013.084-.15.027-.295.05-.444.073 0-.03-.006-.057-.01-.083a.235.235 0 0 0 .037-.01c.076-.013.073-.067.06-.166a13.7 13.7 0 0 0-.074-.636c-.01-.1-.02-.153-.09-.143h-.039c0-.027-.006-.05-.01-.076.146-.023.292-.053.434-.077.003.027.013.057.013.083M97.96 16.41a.477.477 0 0 1-.056.013c-.092-.239-.165-.342-.285-.312-.023.007-.023.013-.016.067.037.262.07.527.1.789.013.07.039.099.092.09a1.42 1.42 0 0 1 .053-.01l.01.082c-.156.033-.312.07-.47.103-.007-.03-.007-.054-.01-.083a.22.22 0 0 0 .05-.014c.062-.013.075-.056.07-.125a30.186 30.186 0 0 1-.103-.783c-.01-.056-.01-.066-.034-.06-.119.027-.165.153-.191.415l-.06.01c-.014-.146-.027-.292-.043-.438.278-.056.552-.116.827-.182.024.146.04.295.067.438"/>
        <path fill="#FFFFFE" d="M79.55 6.597s-1.903 2.61-2.105 2.805c-.12.12-.91-.255-.91-.255.006.225-.126.438-.126.438-.08.185-.142.639-.142.639s.542.385.635.448c.208.132.649.165.811.053.159-.11.563-.962.563-.962.387-1.71 1.347-2.347 1.347-2.347l.043-.209c-.317-.13-.228-.448-.116-.61M85.15 6.528s-2.496-.593-5.2-.047c0 0-.232.017-.216.226.007.116.093.212.21.212a.78.78 0 0 0 .108-.016c.424-.073 2.85-.538 4.979.033.043.01.056.02.093.02a.209.209 0 0 0 .208-.213c-.003-.172-.182-.215-.182-.215"/>
        <path fill="#131514" d="M88.928 7.551l-.152-.116a.542.542 0 0 0-.53-.49.537.537 0 1 0 0 1.074c.222 0 .414-.14.493-.338l.166-.024.023-.106zm-.682.242a.314.314 0 0 1-.317-.311c0-.173.142-.312.317-.312.172 0 .308.139.308.312a.308.308 0 0 1-.308.311z"/>
        <path fill="#FFFFFE" d="M98.332 11.505c.752.169 2.073.45 2.073.45 1.29.26 1.353 1.032 1.353 1.032.358-.806-.284-1.041-.284-1.041.622-.156.735-.61.735-.61.281-.6.483-2.122-1.229-2.666l-.434-.12c-.542-.706-1.3-.782-1.3-.782.11.205.311.365.311.365-.516-.086-.987-.444-.987-.444.027.58.652.795.652.795v.017c-.847-.02-3.975-.05-3.975-.05-1.34-.185-1.178-1.585-1.178-1.585.28-1.07 1.896-.49 1.896-.49 3.956 1.777 4.79-.693 4.79-.693-1.768.868-2.115.61-2.115.61.788-.21 1-.81 1-.81-1.636.498-1.781.22-1.781.22.589-.01.688-.495.688-.495-.433.15-1.599.166-1.599.166-.599-.03-1.608.053-1.608.053-1.755.266-1.738 1.426-1.738 1.426-.06 1.996 1.598 2.029 1.598 2.029.722.063 3.09.024 4.036.027v.013s-.646.15-.742.723c0 0 .51-.309 1.036-.339 0 0-.228.137-.357.329 0 0 .778.083 1.294-.607 0 0 .06.006.46.132 1.47.472.993 1.721.993 1.721-.258.929-1.403.726-1.403.726-.6-.01-5.19-1.14-5.19-1.14l.108.206c.252.046.341.159.365.271.03.13-.027.252-.027.252-.04.143-.129.213-.129.213l.063.235c.722.205.827 1.147.827 1.147.097.667.47.945.47.945.968.852 1.98.713 1.98.713.318-.026.38.07.38.07.342.189.282 1.114.282 1.114.02.38-.162.762-.162.762.1.308.679.143.679.143.082-.023.105-.143.105-.143.063-.169-.069-.335-.069-.335-.053-.083.007-.07.007-.07.35.186.32.617.32.617.57-.713-.218-1.207-.218-1.207-.109-.016-.192-.066-.192-.066-.093-.364-.112-1.08-.112-1.29.003-.205-.15-.41-.298-.33-.454.238-1.35-.064-1.35-.064.234-.972-.097-2.165-.097-2.165l.073.02"/>
        <path fill="#131514" d="M95.761 11.152a.39.39 0 0 1-.387.388.39.39 0 0 1-.387-.388c0-.219.175-.388.387-.388.212 0 .387.169.387.388M96.27 14.637a.481.481 0 0 0-.321-.202l-.016-.394a.408.408 0 0 0 .271-.379.395.395 0 0 0-.324-.39c-.01-.14-.027-.28-.04-.422a.362.362 0 0 0-.093-.696 7.45 7.45 0 0 0-.056-.312l-.152-.036c.026.11.046.232.066.358a.366.366 0 0 0-.272.351.37.37 0 0 0 .365.362c.013.132.023.262.033.388a.406.406 0 0 0-.342.397c0 .22.176.398.398.405.006.153.01.282.01.368-.245.043-.434.279-.434.57 0 .319.229.574.514.574.28 0 .516-.255.516-.574a.59.59 0 0 0-.123-.368zm-.393.68c-.143 0-.262-.143-.262-.312s.119-.312.262-.312c.102 0 .198.077.238.187.013.04.02.079.02.125 0 .17-.12.312-.258.312z"/>
        <path fill="#FFFFFE" d="M97.093 15.309s-.04.235-.02.285c0 0 .35-.05.592-.133-.026-.003-.533-.01-.572-.152M68.3 15.29l-.14.32s-.734.045-.907-.236c0 0 .358-.033 1.047-.083M88.24 14.335l-.365.361c-.026-.056-.06-.11-.093-.162l.315-.312a3.188 3.188 0 0 1-.165-.146l-.259.308a1.08 1.08 0 0 0-.129-.142l.248-.302a.09.09 0 0 1-.02-.016l-.118-.126-.236.328c-.046-.04-.095-.07-.139-.103l.252-.351-.126-.146-.245.424c-.066-.033-.083-.056-.126-.073l.186-.5c-.126-.17-.11-.183-.11-.183s-.135.63-.443 1.15c0 0 .596.16.874.8l.884-.74-.186-.07M82.16 3.06h.623v-.63h-.623zM79.675 3.135c-.192-.046-.414.073-.54.298-.138.226-.122.491.023.63.113-.294.292-.567.53-.802-.013-.046-.013-.086-.013-.126M79.829 3.306c.16-.153.341-.289.546-.411a.358.358 0 0 0-.33-.11c-.19.037-.308.239-.312.481a.35.35 0 0 1 .096.04M85.196 3.305c-.01-.301-.195-.54-.404-.527a.297.297 0 0 0-.205.1c.231.136.433.292.609.464v-.037M86.011 3.487c-.162-.295-.466-.438-.675-.322a.33.33 0 0 0-.056.044c.3.301.473.484.576.865.006-.003.318-.292.155-.587"/>
        <path fill="#FFFFFE" d="M81.88 2.43l-.007.597s-1.311-.129-2.486.757c0 0 .804-1.121 2.492-1.353M82.853 2.43l.007.597s1.308-.129 2.487.757c0 0-.802-1.121-2.494-1.353"/>
        <path fill="#131514" d="M87.14 15.589a.91.91 0 0 0 .053-.222.703.703 0 0 1 .264.056l.057-.106a.812.812 0 0 0-.302-.067c.03-.135.037-.305.037-.424h.003-.003v-.033l.016-.083h-.02v-.027l-.135.004.003.02a.793.793 0 0 0-.258.046c0-.159-.04-.355-.046-.381l-.02.003.01-.08c-.07-.006-.265-.026-.41 0 .006-.029.006-.049.006-.052l-.136-.007s-.003.043-.02.103a1.747 1.747 0 0 0-.268-.076c0-.007 0-.01-.003-.01h-.07c-.07-.007-.125-.004-.162.02l.083.095h.01c-.01.117-.037.306-.126.472a.248.248 0 0 0-.063.04l.027.026-.04.046.116.07c.023-.03.046-.063.066-.096a.623.623 0 0 1 .314 0c0 .079-.016.278-.125.474v.003l-.004.003a.094.094 0 0 1-.006.027c-.03.03-.056.056-.083.09l.03.013a.027.027 0 0 1-.014.013l.1.083c.033-.026.06-.083.083-.13.152-.112.394-.116.51-.112a1.784 1.784 0 0 1-.12.378.401.401 0 0 0-.082.1l.013.002a.1.1 0 0 1-.024.034l.11.073a.77.77 0 0 0 .1-.146.422.422 0 0 1 .336-.11.511.511 0 0 1-.099.335l.11.07c.125-.14.129-.342.129-.398 0-.003 0-.006.003-.006.156-.047.354.032.354.032l.053-.105a.856.856 0 0 0-.357-.06zm-.027-.763c0 .123-.006.302-.043.431a.747.747 0 0 0-.278-.003c.053-.176.053-.305.05-.355.06-.053.175-.073.271-.073zm-.93.504c.073-.189.083-.352.08-.414.145-.086.36-.027.443 0 0 .056-.004.182-.066.358a1.177 1.177 0 0 0-.457.056zm.14-.563c.032-.136.032-.279.029-.335.036-.027.175-.037.327-.03.017.09.05.272.034.395-.09-.03-.245-.064-.39-.03zm-.451.026c.063-.153.086-.305.093-.408.076.01.162.04.254.07 0 .073-.003.242-.063.355-.062-.01-.172-.03-.284-.017zm.814.849c.036-.113.06-.209.07-.259a.669.669 0 0 1 .298-.013.961.961 0 0 1-.064.239.64.64 0 0 0-.304.033zM82.527 5.208l-.367.315.367.315.368-.315-.368-.315M81.369 5.707c.003.083-.12.163-.285.176-.165.013-.3-.046-.31-.133-.004-.09.121-.165.287-.175.162-.01.301.046.308.132M84.136 5.763c-.01.083-.15.136-.311.122-.162-.02-.288-.106-.278-.189.01-.086.149-.139.311-.122.162.02.288.106.278.189M90.43 4.647c-.463-.13-.549-.438-.552-.448-.01-.023-.034-.04-.06-.03-.023.004-.036.03-.03.057.004.007.033.106.136.222a.366.366 0 0 0-.06.225c.004.13.11.21.209.21.103 0 .195-.1.202-.196.043.017.086.033.133.046.023.007.05-.01.056-.033.006-.023-.007-.046-.033-.053"/>
        <path fill="#FFFFFE" d="M90.028 4.687c0 .04-.03.07-.073.07-.036 0-.063-.03-.063-.07 0-.04.027-.07.063-.07.043 0 .073.03.073.07M78.696 13.542a.425.425 0 0 0 .046.245.475.475 0 0 0 .284.265.512.512 0 0 0 .395-.023.431.431 0 0 0 .161-.117M78.952 12.107l.175-.216-.013-.04-.42.096.258.16"/>
        <path fill="#FFFFFE" d="M79.247 11.843c.01.02.02.043.02.08l.033-.004-.033-.46-.036.003c.003.04 0 .076-.014.092-.01.024-.036.037-.073.04l-.655.046c-.043.004-.07-.003-.083-.03-.013-.016-.02-.043-.023-.086l-.036.004.02.232.162.103.632-.057c.043 0 .07.007.086.037M78.723 10.357a.49.49 0 0 0 .604-.357.482.482 0 0 0-.352-.605.507.507 0 0 0-.388.044.49.49 0 0 0-.223.302.519.519 0 0 0 .044.385.51.51 0 0 0 .315.23zm-.315-.599c.023-.074.079-.122.16-.143a.607.607 0 0 1 .34.021c.104.03.19.062.247.099.11.07.15.152.123.255-.027.105-.103.156-.233.163-.07 0-.156-.01-.266-.038a.77.77 0 0 1-.239-.102c-.116-.068-.159-.156-.132-.255zM78.78 9.059c.023-.024.052-.024.095 0l.613.268c.036.02.056.04.063.07 0 .02-.01.046-.027.083l.037.016.195-.435-.03-.016a.179.179 0 0 1-.06.08c-.023.013-.05.013-.082-.003l-.62-.272c-.039-.017-.056-.04-.056-.067a.14.14 0 0 1 .024-.086l-.034-.016-.205.434.037.013c.016-.033.033-.06.05-.07M79.914 8.266l-.553-.358a.296.296 0 0 1 .109-.107c.063-.03.14-.026.225.017l.02-.033-.228-.146-.447.666.225.15.023-.033c-.076-.06-.11-.127-.106-.2a.326.326 0 0 1 .06-.139l.595.388c.04.023.063.05.07.073.003.023-.01.056-.04.1l.03.016.017-.02M84.933 8.33l.44-.32c.044-.033.083-.043.103-.036.027.007.053.03.09.076l.03-.023-.295-.388-.03.02c.023.033.033.06.04.076.003.033-.014.057-.047.083l-.33.232M84.933 8.51l.07.1.294-.143-.023-.033a.472.472 0 0 1-.268.01.38.38 0 0 1-.073-.04M86.296 9.116c.024.003.04.006.053.02.014.01.023.023.04.04l.03-.014-.13-.269-.029.017a.348.348 0 0 1 .023.08c.003.02-.01.036-.03.046a.323.323 0 0 1-.079.01l-.06-.006-.281-.027.219-.299c.013-.016.026-.026.032-.036l.017-.01c.013-.007.023-.003.034.007.01.013.026.036.046.076l.03-.013-.19-.405-.032.017c.006.01.01.026.01.043a.161.161 0 0 1-.03.083l-.305.41-.185.084c-.046.02-.08.03-.103.02-.023-.007-.043-.037-.066-.08l-.03.013.199.421.033-.016c-.02-.044-.026-.08-.02-.1.007-.02.033-.04.083-.063l.228-.102.493.053M85.77 10.147c-.01-.055-.01-.091.002-.12.01-.023.047-.039.093-.055l.252-.068c.016.092.033.164.046.211a.462.462 0 0 0 .063.132.28.28 0 0 0 .116.11c.05.017.092.025.135.01.093-.03.15-.08.176-.156a.785.785 0 0 0-.003-.33l-.106-.506-.033.008a.248.248 0 0 1-.01.112c-.01.02-.04.043-.086.055l-.6.167c-.05.016-.082.012-.102 0-.02-.012-.036-.047-.046-.095l-.04.008.11.525.032-.008zm.757-.362c.017-.004.03 0 .04.016.01.008.016.028.023.06.017.071.003.119-.027.155a.26.26 0 0 1-.145.08c-.09.023-.149.02-.188-.024a.437.437 0 0 1-.067-.18l.364-.107zM86.434 10.543l-.668.053c-.04 0-.067-.01-.083-.037a.187.187 0 0 1-.02-.08l-.036.004.026.345c.205-.123.474-.196.82-.17.024 0 .06 0 .104.004l-.017-.245h-.033c0 .043-.003.07-.013.086-.01.026-.04.04-.08.04M86.559 12.445c-.02.016-.056.02-.102.013l-.391-.053v-.007l.503-.245c-.159.03-.298-.013-.596.298l.506.066c.037 0 .064.014.073.03.01.017.014.047.017.087l.036.003.037-.282-.033-.003c-.014.046-.03.08-.05.093"/>
        <path fill="#FFFFFE" d="M86.282 12.515a.218.218 0 0 0-.165.003.522.522 0 0 0-.176.133l-.066.066a.66.66 0 0 1-.093.08.118.118 0 0 1-.106.006c-.006 0-.013-.003-.02-.01l-.03.133a.153.153 0 0 0 .093.053c.067.02.136.017.196-.013a.436.436 0 0 0 .102-.08l.076-.076c.067-.067.11-.106.136-.123a.122.122 0 0 1 .103-.007c.033.01.063.034.076.063.016.027.016.067.006.106a.222.222 0 0 1-.119.133.479.479 0 0 1-.195.036l-.013.03.281.086.013-.033c-.016-.01-.023-.016-.026-.023-.01-.006-.01-.023-.007-.036l.047-.063a.542.542 0 0 0 .062-.126c.027-.09.02-.162-.02-.222a.253.253 0 0 0-.155-.116M85.87 12.36l.01-.037-.113-.033c-.017.023-.03.046-.046.073a.537.537 0 0 1 .148-.004M86.097 13.377c-.023.02-.053.016-.09 0l-.364-.183c.03.08.06.18.07.279l.211.103c.024.01.037.026.04.04.004.012-.006.04-.023.073a.428.428 0 0 1-.146.179.345.345 0 0 1-.145.002c-.007.014-.017.03-.023.047l.195.093.358-.68-.034-.02a.213.213 0 0 1-.05.067"/>
        <path fill="#131514" d="M79.315 13.757c-.023.007-.046.02-.076.036-.106.044-.19.07-.262.083-.129.014-.221-.023-.264-.119-.033-.07-.024-.136.026-.206"/>
        <path fill="#FFFFFE" d="M89.262 7.292s1.735.106 3.433 1.184c0 0-.357.547-.434.623 0 0-2.058-1.071-3.168-1.041l.17-.766"/>
        <path fill="#131514" d="M89.815 7.878c-.348.355-.599.033-.586-.092.004-.043.05-.2.05-.2l.11.13.141-.309-.198.07.08-.162-.163-.023-.156.808c.871.04 2.013.498 3.152 1.081l.493-.689-.11-.07-.118.17-.172-.177-.123.266.235.016s-.096.09-.135.12c-.306.222-.765-.024-.739-.312V8.5s.063-.216.275-.01c0 0 .242-.203-.152-.216 0 0 .198-.096.05-.262h-.004c-.228.023-.179.213-.179.213-.185-.16-.261 0-.281.07.258-.014.205.098.162.161l-.007.003c-.238.21-.711.01-.728-.294l.004-.017c.02-.07.086-.172.287.01.04-.053.12-.192-.178-.229 0 0 .202-.08.03-.266h-.007c-.245.03-.15.216-.15.216-.234-.155-.277 0-.287.066.268-.013.241.107.205.17l-.013.013c-.248.215-.685.09-.659-.205 0 0 .06-.219.278-.01 0 0 .235-.203-.159-.22 0 0 .202-.095.056-.258h-.006c-.232.024-.175.213-.175.213-.193-.16-.262 0-.291.07.261-.017.208.099.168.158v.003"/>
        <path fill="#FFFFFE" d="M80.08 11.111v.77c.828-.07.745.546.745.546.341.116.129.716.129.716.119.329-.03.71-.03.71.364.865 1.347 1.286 1.45 1.376V11.11H80.08M82.38 7.294c-1.218-.027-2.022.238-2.3.348l.007 3.189h2.293V7.294M82.507 10.823h2.102l.006-3.217a13.605 13.605 0 0 0-2.108-.314v3.53M82.507 15.229c1.069-.249 1.44-1.11 1.44-1.11.062-.409.668-2.103.668-2.103l-.006-.905h-2.102v4.118"/>
        <path fill="#131514" d="M74.808 6.389c.139-.044.228-.1.25-.143.024-.036-.012-.206-.059-.395-.043-.195.16-.172.16-.172.539.073.433-.47.433-.47-.232.205-.334.132-.447.155-.42.096-.34.391-.288.478.063.09.123.315.103.355-.023.04-.126.066-.182.086-.056.016-.16.052-.202.032-.04-.02-.116-.238-.123-.344-.003-.103-.106-.391-.51-.22-.106.041-.142.16-.45.127 0 0 .225.5.626.132 0 0 .152-.132.228.047.07.183.143.342.182.361.04.02.15.017.285-.032l-.006.003"/>
        <path fill="#131514" d="M75.263 7.48c.526-.782.225-1.577.225-1.577-.073 1.134-.626.282-.626.282s.023 1.017-.675.126c0 0 .198.822 1.076 1.17"/>
        <path fill="#FFFFFE" d="M74.88 6.86c.205.264.454.36.454.36.155-.278.155-.556.155-.556-.179.152-.35-.067-.35-.067-.037.282-.259.262-.259.262"/>
        <path fill="#131514" d="M90.976 11.934c.35-.292.52-.84.52-1.449 0-.046-.033-.077-.063-.066a.109.109 0 0 0-.067.092c-.016.55-.185 1.038-.526 1.326-.023.027-.016.06.02.09.037.026.09.03.116.007M91.662 12.198c.331-.276.49-.796.49-1.373 0-.043-.026-.067-.06-.06a.093.093 0 0 0-.062.083c-.013.52-.172.984-.496 1.253-.024.023-.017.06.02.087.032.026.082.03.108.01"/>
        <path fill="#131514" d="M92.007 12.165c.324-.272.484-.776.484-1.34-.007-.04-.034-.069-.067-.06a.1.1 0 0 0-.056.087c-.013.507-.172.958-.487 1.227-.023.02-.02.053.017.08.036.029.083.032.11.006M74.013 12.278c-.35-.292-.523-.839-.52-1.446 0-.046.03-.076.063-.066a.105.105 0 0 1 .067.093c.013.543.185 1.037.523 1.322.026.024.023.06-.017.09-.037.027-.09.03-.116.007"/>
        <path fill="#131514" d="M73.633 12.196c-.33-.275-.49-.796-.486-1.373 0-.04.026-.07.056-.056.036.006.063.046.063.08.013.52.172.984.496 1.253.024.023.017.063-.016.086-.037.026-.083.03-.113.01M73.277 12.513c-.325-.273-.483-.78-.477-1.343 0-.04.027-.067.06-.057.03.01.056.046.056.083.013.504.172.958.487 1.227.023.02.016.053-.017.08-.036.026-.082.033-.11.01"/>
        <path fill="#FFFFFE" d="M76.307 17.082l-.04-.427.02-.336s.112.176.228.286c.053.043.106.076.152.076l-.36.4M73.625 14.96s-.633-.765-1.298.007c0 0-1.215-.262-1.575-.577 0 0 .433-.242.52-.623 0 0 .714.06 1.015-.368 0 0-.668-.123-1.069-.684-.185-.255-.887-.888-1.314-.908-.477-.023-1.39.202-2.304 1.429 0 0 .81.289 1.774.415 0 0 .371.003.182.255 0 0-.215.242-.804.48 0 0-.156.05-.146.292 0 0-.04.345.083.385 0 0 .642.378 2.231.593 0 0 1.887-.033 2.473-.135 0 0-.05-.445.232-.56M85.66 15.405c-.143-.275-.182-.822-.182-.822s-.255.842-.817 1.044c.062.06.185.216.178.388a.333.333 0 0 1-.328.328.285.285 0 0 1-.109-.023l-.162.56s.44-.165.682-.427c0 0 .248-.345.46-1.064.096-.339-.182.945-.182.945l.75-.528c.014 0-.105-.109-.29-.4"/>
        <path fill="#FFFFFE" d="M84.705 16.014c0-.11-.066-.17-.192-.2a3.4 3.4 0 0 1-.126-.032c-.53-.202-.84-.504-.84-.504v.488c.754.45.973.44.98.44a.19.19 0 0 0 .178-.192M84.457 17.412c-.007-.087-.066-.13-.166-.136l-.102-.02c-.434-.12-.533-.242-.533-.242v.153l-.11.116c.706.36.779.298.782.298.076-.014.14-.09.129-.17M79.78 14.93l-.334.478s-.146.209.02.401l.304.312s.186.056.239-.182l-.202-.223s-.143-.139-.046-.261l.234-.306a4.665 4.665 0 0 1-.185-.185l-.03-.033M79.225 14.461c-.032.027-.062.033-.089.024a.17.17 0 0 1-.066-.06l-.03.026.301.368.034-.023a.179.179 0 0 1-.044-.073c-.003-.033.01-.06.04-.083l.222-.179c-.033-.076-.057-.152-.08-.225l-.288.225"/>
        <path fill="#FFFFFE" d="M79.572 14.719c-.03.026-.063.033-.09.02a.297.297 0 0 1-.069-.054l-.026.02.238.292.218-.288c-.03-.043-.062-.086-.092-.126l-.18.136"/>
        <path fill="#131514" d="M91.28 12.716l-.123-.086c-.004.004-.056.077-.146.182a.41.41 0 0 0-.165-.046.369.369 0 0 0-.372.372.35.35 0 0 0 .038.152c-.074.057-.16.113-.252.162a.338.338 0 0 0-.288-.152.364.364 0 0 0-.365.365c0 .007 0 .013.004.016-.07.007-.143.014-.215.01a1.325 1.325 0 0 1-.202-.026c.01-.03.02-.06.02-.093a.37.37 0 0 0-.368-.371.36.36 0 0 0-.301.169 2.02 2.02 0 0 1-.282-.24.33.33 0 0 0 .053-.172.367.367 0 0 0-.367-.367.38.38 0 0 0-.122.023c-.1-.14-.199-.292-.299-.461l-.168.016c.109.19.225.362.338.52a.369.369 0 0 0 .251.636c.09.001.163-.032.228-.085.1.1.206.19.315.266-.003.02-.013.04-.013.066 0 .202.162.365.367.365.113 0 .209-.05.275-.133.093.02.179.033.268.04.09.003.172-.007.261-.017.06.12.176.206.322.206.205 0 .37-.163.37-.368 0-.023-.01-.047-.016-.073.1-.06.188-.116.278-.186.066.06.146.1.242.1.202 0 .36-.166.36-.368 0-.09-.03-.17-.08-.226.09-.113.146-.186.153-.196M87.855 8.056l-.15-.07a9.87 9.87 0 0 0-.34.802c-.023-.003-.04-.006-.06-.006a.281.281 0 0 0-.129.534 6.961 6.961 0 0 0-.159.6.364.364 0 0 0-.35.361c0 .156.095.286.234.342-.016.189-.013.298-.013.311l.166-.01c0-.01-.007-.112.006-.281a.365.365 0 0 0 .341-.362.361.361 0 0 0-.228-.338c.047-.176.096-.375.169-.594a.286.286 0 0 0 .168-.484c.093-.248.205-.517.345-.805"/>
        <path fill="#FFFFFE" d="M80.924 16.403c-.03.182-.129.71-.328 1.002 0 0 .182-.568.248-1.045a3.127 3.127 0 0 1-.579-.388c-.142.54-.477.189-.477.189-.251.832.424.345.709.341.328-.003.116.206.116.206-.219.143-.444.206-.444.206-.424.146-.222.484-.222.484.206.268.487.192.487.192.179.027.179.166.179.166.1.328.38.169.38.169.22-.202.1-.593.1-.593-.242-.886.083-.644.083-.644.026.03.053.083.076.133v-.292a1.908 1.908 0 0 1-.328-.126"/>
    </g>
</svg>
