<svg xmlns="http://www.w3.org/2000/svg" width="97" height="25" viewBox="0 0 97 25">
    <g fill="#48494C" fill-rule="evenodd">
        <path d="M59.146 7.29c-1.547 0-2.762.332-3.978.998 0-3.551 0-6.77.11-7.88l-7.404 1.331v.666l.774.111c.994.222 1.326.777 1.547 2.109.221 2.664.11 16.873 0 19.204 1.989.444 4.088.777 6.189.777 5.857 0 9.392-3.663 9.392-9.435 0-4.552-2.872-7.882-6.63-7.882zm-2.542 16.095c-.442 0-.994 0-1.326-.11-.11-1.555-.221-8.104-.11-13.876.662-.223 1.105-.334 1.657-.334 2.431 0 3.758 2.886 3.758 6.439 0 4.44-1.658 7.88-3.979 7.88zM20.025.851H.576v.999l1.105.11c1.437.223 1.99 1.111 2.21 3.22.332 3.996.222 11.212 0 14.653-.22 2.109-.773 3.109-2.21 3.219l-1.105.222v.888h12.488v-.888l-1.327-.222c-1.436-.11-1.989-1.11-2.21-3.219-.11-1.443-.22-3.775-.22-6.66l2.652.11c1.658 0 2.43 1.332 2.763 3.22h.994V8.622h-.994c-.332 1.887-1.105 3.218-2.763 3.218l-2.653.111c0-3.773.11-7.326.222-9.435h3.867c2.984 0 4.531 1.887 5.636 5.217l1.105-.333-.11-6.549"/>
        <path d="M26.324 7.067c5.526 0 8.289 3.775 8.289 8.77 0 4.773-3.094 8.77-8.62 8.77s-8.288-3.775-8.288-8.77c0-4.774 3.094-8.77 8.62-8.77zm-.33 1.11c-2.432 0-3.095 3.33-3.095 7.66 0 4.217 1.105 7.66 3.316 7.66 2.54 0 3.204-3.331 3.204-7.66 0-4.218-1.105-7.66-3.426-7.66zM67.213 15.947c0-4.55 2.873-8.88 8.51-8.88 4.64 0 6.851 3.442 6.851 7.993H72.296c-.11 4.107 1.88 7.104 5.858 7.104 1.768 0 2.652-.444 3.757-1.221l.442.555c-1.105 1.554-3.536 3.108-6.63 3.108-4.973 0-8.51-3.552-8.51-8.659zm5.083-2.108l5.195-.111c0-2.22-.331-5.55-2.21-5.55s-2.874 3.107-2.985 5.661zM95.724 7.956c-1.326-.556-3.094-.889-5.083-.889-4.088 0-6.63 2.442-6.63 5.329 0 2.886 1.878 4.107 4.53 4.995 2.763.999 3.537 1.776 3.537 3.108s-.995 2.553-2.763 2.553c-2.1 0-3.647-1.22-4.863-4.551l-.773.222.111 4.884c1.326.555 3.757 1 5.856 1 4.31 0 7.074-2.221 7.074-5.661 0-2.333-1.217-3.664-4.09-4.774-3.094-1.221-4.199-1.998-4.199-3.442 0-1.443.995-2.442 2.32-2.442 1.99 0 3.316 1.221 4.31 4.218l.774-.221-.11-4.33M48.98 7.512c-1.879-1.11-5.195-.556-6.963 3.44l.11-3.885-7.404 1.443v.666l.774.111c.995.112 1.436.666 1.547 2.11.221 2.664.11 7.326 0 9.657-.11 1.332-.552 1.998-1.547 2.11l-.774.11v.888h10.278v-.888l-1.326-.11c-1.106-.112-1.437-.778-1.547-2.11-.222-2.108-.222-6.327-.111-8.991.552-.778 2.984-1.444 5.194 0l1.768-4.551"/>
    </g>
</svg>
