<svg xmlns="http://www.w3.org/2000/svg" width="145" height="25" viewBox="0 0 145 25">
    <g fill="#000" fill-rule="evenodd" opacity=".7">
        <path d="M7.607 13.13V9.18l-.642.454v3.816c0 .373-.08.64-.214.906l.053.028c.348-.294.803-.694.803-1.255zM3.7 7.391c-1.125 1.174-2.142 2.642-2.142 4.75 0 5.23 3.588 7.792 7.818 7.792 2.623 0 4.283-1.254 5.353-2.348l-.033-.07c-1.205.96-2.804 1.777-5.32 1.777-3.427 0-7.15-2.32-7.15-7.151 0-1.842.633-3.508 1.517-4.709l-.043-.04zm9.129-1.681c-3.16 0-5.944-1.548-8.246-1.548-1.472 0-3.139.592-3.728 2.14l.034.022c.696-1.201 2.276-1.549 3.694-1.549 2.302 0 5.087 1.549 8.246 1.549 2.543 0 4.015-.774 4.257-2.802h-.054c-.375 1.547-1.66 2.188-4.203 2.188zM1.343 12.14c0-3.255 2.516-5.522 4.685-6.51l.08.107c-.803.934-1.312 1.947-1.312 4.056 0 2.295.59 3.896 1.526 4.99.268-.32.43-.908.43-1.388V9.553L10.9 6.592l.054.08c-.375.507-.51.987-.51 1.867v2.642c0 1.361-2.542 3.122-4.041 3.683 1.124 1.2 2.73 1.708 4.47 1.708.482 0 .91-.027 1.34-.08v-9.98c-1.58-.08-3.053-.534-4.418-.908-1.151-.32-2.222-.613-3.213-.613-1.82 0-4.042.613-4.016 3.202 0 .213.027.427.054.667l-.134.053a5.907 5.907 0 0 1-.428-2.215c0-2.935 2.168-5.577 5.702-5.577 1.5 0 2.784.347 4.043.694 1.312.374 2.597.747 4.069.747.723 0 1.098-.32 1.098-1.014S14.648.453 14.193.321l.027-.108c1.392.24 3.079 1.095 3.079 2.962 0 2.43-1.687 3.363-4.471 3.363h-.402v9.954c2.115-.294 3.454-1.175 4.444-2.75l.081.054c-1.205 3.39-3.293 6.351-7.63 6.351-4.39 0-7.978-2.775-7.978-8.005zM51.61 13.13V9.18l-.643.454v3.816c0 .373-.08.64-.214.906l.053.028c.348-.294.803-.694.803-1.255zM47.7 7.391c-1.124 1.174-2.141 2.642-2.141 4.75 0 5.23 3.587 7.792 7.817 7.792 2.624 0 4.284-1.254 5.355-2.348l-.035-.07c-1.204.96-2.803 1.777-5.32 1.777-3.427 0-7.148-2.32-7.148-7.151 0-1.842.632-3.508 1.515-4.709l-.043-.04zm9.13-1.681c-3.16 0-5.943-1.548-8.246-1.548-1.473 0-3.139.592-3.728 2.14l.033.022c.697-1.201 2.276-1.549 3.695-1.549 2.303 0 5.087 1.549 8.246 1.549 2.543 0 4.015-.774 4.256-2.802h-.053c-.374 1.547-1.66 2.188-4.203 2.188zm-11.485 6.43c0-3.255 2.516-5.522 4.685-6.51l.08.107c-.803.934-1.312 1.947-1.312 4.056 0 2.295.59 3.896 1.527 4.99.267-.32.428-.908.428-1.388V9.553l4.149-2.961.054.08c-.375.507-.509.987-.509 1.867v2.642c0 1.361-2.543 3.122-4.042 3.683 1.124 1.2 2.73 1.708 4.47 1.708.482 0 .91-.027 1.339-.08v-9.98c-1.58-.08-3.052-.534-4.417-.908-1.152-.32-2.223-.613-3.213-.613-1.82 0-4.042.613-4.016 3.202 0 .213.027.427.054.667l-.134.053a5.907 5.907 0 0 1-.428-2.215c0-2.935 2.168-5.577 5.702-5.577 1.499 0 2.784.347 4.043.694 1.311.374 2.597.747 4.069.747.722 0 1.098-.32 1.098-1.014S58.65.453 58.195.321l.027-.108c1.392.24 3.079 1.095 3.079 2.962 0 2.43-1.687 3.363-4.471 3.363h-.402v9.954c2.115-.294 3.454-1.175 4.444-2.75l.08.054c-1.205 3.39-3.292 6.351-7.629 6.351-4.39 0-7.978-2.775-7.978-8.005z"/>
        <path d="M23.78 21.882c1.071-.667 1.875-1.414 1.875-2.989V9.286L24.128 7.5l-.428.453L25.01 9.5v9.393c0 1.308-.481 2.295-1.284 2.935l.053.054zM17.623.973v.04c.455.162 1.15.749 1.15 1.79v14.409l-.615.614 2.33 1.975.454-.374-1.954-1.601.428-.427V2.802c0-1.12-.937-1.75-1.793-1.829zm1.713 22.216c2.785-.24 5.488-1.28 5.488-4.296v-9.34l-1.258-1.468-1.472 1.522v7.098l1.097 1.04-2.677 2.269h-.08l-2.543-2.188.669-.694V2.802c0-1.12-.884-1.734-1.392-1.84V.907c.187-.134.535-.187 1.017-.187.91 0 1.58.533 1.82 1.2h.054c.616-.907 1.526-1.2 2.41-1.2.24 0 .481.027.695.053v.08c-.428.16-1.07.694-1.07 2.215v6.27l3.426-3.521h.08c.241.213 1.634 1.52 2.035 1.787.16.107.375.187.59.187.32 0 .615-.133.775-.213v.08c-.32.293-.642.747-.642 1.28v8.3c0 3.549-3.882 5.684-9.022 6.084v-.134zM34.438 7.739l-.589.32c.857.934 1.847 2.135 2.865 3.255l.562-.373c-.99-1.12-1.981-2.295-2.838-3.202zm-.776 5.47l2.864-1.787c-.99-1.122-2.008-2.322-2.864-3.256v5.044zm1.5 6.218c-1.553-.667-3.106-1.281-4.311-1.949.107-.453.16-1.334.16-2.801v-5.87l-.642.319v5.55c0 1.468-.054 2.67-.187 3.043 1.204.667 2.971 1.441 4.524 2.135l.455-.427zM30.154 9.02c1.499-.721 3.881-2.108 5.381-3.202h.107c.964 1.04 2.57 2.828 3.828 3.922v.107l-5.81 3.576v2.588c.59.4 2.33 1.308 3.32 1.655l2.276-2.109.134.16-4.632 4.297h-.053c-1.58-.667-3.534-1.548-4.738-2.215.107-.374.187-1.655.187-3.122V9.02zM74.996 19.32c-.99-.347-2.248-.987-2.248-2.535V3.923l-1.225-1.248-.489.5 1.044 1.042v12.781c0 1.495 1.473 2.456 2.463 2.829l.455-.507zm.402-16.571v13.529c0 .694.643 1.334 1.178 1.468l.75-.748.134.134-2.865 2.882h-.08c-1.018-.373-2.624-1.388-2.624-2.962V4.297l-.99-.988-.69.702-.114-.115L73.15.801h.08l2.17 1.948z"/>
        <path d="M65.988 7.739l-.589.32c.857.934 1.847 2.135 2.865 3.255l.562-.373c-.99-1.12-1.981-2.295-2.838-3.202zm-.777 5.47l2.866-1.787C67.086 10.3 66.068 9.1 65.21 8.166v5.044zm1.5 6.218c-1.553-.667-3.105-1.281-4.31-1.949.107-.453.16-1.334.16-2.801v-5.87l-.643.319v5.55c0 1.468-.053 2.67-.187 3.043 1.205.667 2.972 1.441 4.525 2.135l.455-.427zM61.705 9.02c1.499-.721 3.882-2.108 5.38-3.202h.108c.963 1.04 2.57 2.828 3.828 3.922v.107l-5.81 3.576v2.588c.59.4 2.33 1.308 3.32 1.655l2.276-2.109.134.16-4.631 4.297h-.054c-1.58-.667-3.534-1.548-4.739-2.215.108-.374.188-1.655.188-3.122V9.02zM82.463 7.739l-.589.32c.857.934 1.848 2.135 2.865 3.255l.562-.373c-.99-1.12-1.981-2.295-2.838-3.202zm-.777 5.47l2.866-1.787C83.56 10.3 82.543 9.1 81.686 8.166v5.044zm1.5 6.218c-1.553-.667-3.105-1.281-4.31-1.949.107-.453.16-1.334.16-2.801v-5.87l-.643.319v5.55c0 1.468-.053 2.67-.186 3.043 1.205.667 2.971 1.441 4.524 2.135l.455-.427zM78.18 9.02c1.499-.721 3.881-2.108 5.38-3.202h.108c.964 1.04 2.57 2.828 3.828 3.922v.107l-5.81 3.576v2.588c.59.4 2.33 1.308 3.32 1.655l2.276-2.109.134.16-4.632 4.297h-.053c-1.58-.667-3.535-1.548-4.739-2.215.108-.374.188-1.655.188-3.122V9.02zM94.78 16.838V9.313l-2.757-1.147v8.512l1.687 1.148 1.07-.988zm.857-8.112l-3.614-1.441v.667l2.972 1.228v8.005c0 1.708.857 3.416 2.008 4.83l.481-.453c-1.016-1.308-1.847-2.696-1.847-4.404V8.726zM91.73 19.721l.535-.48-2.891-1.976V8.646l-.642.454v8.566l2.998 2.055zm-1.098 3.015c-.937 0-1.927.507-2.463 1.174v.027c.616-.32 1.339-.534 2.463-.534 1.339 0 3.132.373 4.096.934l.455-.534c-1.151-.614-2.757-1.067-4.551-1.067zm-2.115-4.964V9.02l4.632-3.23h.08c.509.268 3.909 1.602 4.39 1.789.134.053.322.106.509.106.295 0 .643-.106.803-.186v.08c-.24.293-.643.827-.643 1.28v7.873c0 1.814.402 2.481 1.072 3.202v.08c-1.018 1.014-3.507 3.282-4.551 4.59h-.027c-.99-.56-2.731-1.015-4.15-1.015-1.07 0-2.275.295-3.078.908l-.054-.053c.803-1.815 2.383-3.683 4.524-3.683 1.473 0 3.293.64 4.846 1.414-1.017-1.254-2.088-2.988-2.088-5.097l-3.025 2.856h-.054l-3.186-2.162zM105.465 8.352c.456.428 1.285 1.228 1.821 1.682l.428-.534c-.508-.427-1.445-1.307-1.82-1.655l-.429.507zM104.18 19.32c-1.017-.347-2.276-.987-2.276-2.535V8.94l-1.23-1.228-.482.508 1.044 1.013v7.765c0 1.495 1.445 2.456 2.462 2.83l.482-.508zm.375-9.873v6.83c0 .695.563 1.255 1.205 1.415l.723-.72.133.16-2.864 2.882h-.08c-.99-.374-2.624-1.388-2.624-2.936V9.313l-.99-.96-.696.693-.107-.133 3.051-3.095h.08l2.169 2.054V9.18l2.81-3.362h.108c.536.507 1.42 1.307 2.062 1.787v.054l-2.17 2.615h-.079c-.59-.507-1.5-1.334-1.928-1.788l-.803.96zM115.267 16.945v-4.43c-.884-.213-1.74-.56-2.543-.987v5.444l1.446 1.014 1.097-1.041zm3.186 2.401c-1.017-.346-2.329-1.173-2.329-2.588V9.526l-4.016-2.134-.616.4 3.99 2.108v7.098c0 1.388 1.445 2.456 2.462 2.802l.51-.454zm-3.186-7.017v-2.322l-3.908-2.108c-.242.213-1.339.854-1.58.987.857 1.201 3.213 2.91 5.488 3.443zm-2.516 7.098l-2.65-1.922v-4.109l-.643.427v4.003l2.864 2.028.429-.427zm-.536.587l-2.972-2.082v-4.216a161.02 161.02 0 0 0 3.32-2.294c-1.258-.695-2.356-1.601-3.025-2.51v-.079c1.9-1.094 3.052-1.948 4.23-3.015h.08s4.016 1.867 4.23 1.974c.187.08.348.16.589.16.294 0 .59-.133.75-.213v.106c-.321.294-.643.748-.643 1.281v7.152c0 .694.67 1.308 1.205 1.467l.75-.747.133.134-2.864 2.882h-.08c-1.018-.374-2.544-1.441-2.625-2.856l-2.944 2.856h-.134zM127.264 8.06l1.472 1.44v7.765l.642-.347V9.126l-1.606-1.601-.508.534zm.856 11.954c.16-.187.375-.427.536-.534l-2.891-.64v.667l2.355.507zm.402-2.669V9.58l-1.419-1.388-1.338 1.361v7.232l2.757.56zm-6.05 4.51l-.616.587 2.33 1.975.454-.347-1.9-1.628.374-.374V8.966l-1.205-1.227-.455.453 1.018 1.041v12.622zm3.293-12.568l3.426-3.47h.08c.268.214 1.848 1.682 2.115 1.842.134.08.349.106.51.106.32 0 .614-.106.775-.186v.08c-.294.24-.642.853-.642 1.28v8.62c-1.419.32-2.517 1.174-3.829 2.642h-.053l-2.382-.534v1.68l1.124 1.041-2.704 2.27h-.053l-2.544-2.19.67-.693v-2.882a9.64 9.64 0 0 0-.91-.32v-.08c.293-.133.91-1.015.91-1.735V9.313l-.937-.96-.724.693-.133-.133 3.052-3.095h.08l2.169 2.055v1.414zM139.478 21.882c1.07-.667 1.874-1.414 1.874-2.989V9.286L139.826 7.5l-.428.453L140.71 9.5v9.393c0 1.308-.483 2.295-1.286 2.935l.054.054zM133.321.988v.026c.455.16 1.151.748 1.151 1.788v14.41l-.616.614 2.33 1.975.454-.374-1.954-1.601.429-.427V2.802c0-1.12-.937-1.734-1.794-1.814zm1.713 22.2c2.784-.239 5.489-1.28 5.489-4.295v-9.34l-1.26-1.468-1.471 1.522v7.098l1.097 1.04-2.678 2.269h-.08l-2.543-2.188.67-.694V2.802c0-1.12-.884-1.734-1.392-1.84V.907c.187-.134.535-.187 1.017-.187.91 0 1.58.533 1.82 1.2h.054c.616-.907 1.526-1.2 2.41-1.2.24 0 .481.027.695.053v.08c-.428.16-1.07.694-1.07 2.215v6.27l3.426-3.521h.08c.241.213 1.634 1.52 2.035 1.787.16.107.375.187.59.187.32 0 .615-.133.776-.213v.08c-.322.293-.643.747-.643 1.28v8.3c0 3.549-3.882 5.684-9.022 6.084v-.134z"/>
    </g>
</svg>
